<svg xmlns="http://www.w3.org/2000/svg" xmlns:xlink="http://www.w3.org/1999/xlink" viewBox="0 0 135 40">
    <defs>
        <linearGradient id="a" x1="21.8" y1="32.38" x2="5.02" y2="15.6"
                        gradientTransform="matrix(1, 0, 0, -1, 0, 41.09)" gradientUnits="userSpaceOnUse">
            <stop offset="0" stop-color="#00a0ff"/>
            <stop offset="0.01" stop-color="#00a1ff"/>
            <stop offset="0.26" stop-color="#00beff"/>
            <stop offset="0.51" stop-color="#00d2ff"/>
            <stop offset="0.76" stop-color="#00dfff"/>
            <stop offset="1" stop-color="#00e3ff"/>
        </linearGradient>
        <linearGradient id="b" x1="33.83" y1="21.09" x2="9.64" y2="21.09"
                        gradientTransform="matrix(1, 0, 0, -1, 0, 41.09)" gradientUnits="userSpaceOnUse">
            <stop offset="0" stop-color="#ffe000"/>
            <stop offset="0.41" stop-color="#ffbd00"/>
            <stop offset="0.78" stop-color="orange"/>
            <stop offset="1" stop-color="#ff9c00"/>
        </linearGradient>
        <linearGradient id="c" x1="24.83" y1="18.8" x2="2.07" y2="-3.96"
                        gradientTransform="matrix(1, 0, 0, -1, 0, 41.09)" gradientUnits="userSpaceOnUse">
            <stop offset="0" stop-color="#ff3a44"/>
            <stop offset="1" stop-color="#c31162"/>
        </linearGradient>
        <linearGradient id="d" x1="7.3" y1="40.92" x2="17.46" y2="30.75"
                        gradientTransform="matrix(1, 0, 0, -1, 0, 41.09)" gradientUnits="userSpaceOnUse">
            <stop offset="0" stop-color="#32a071"/>
            <stop offset="0.07" stop-color="#2da771"/>
            <stop offset="0.48" stop-color="#15cf74"/>
            <stop offset="0.8" stop-color="#06e775"/>
            <stop offset="1" stop-color="#00f076"/>
        </linearGradient>
    </defs>
    <rect width="135" height="40" rx="5" ry="5"/>
    <path d="M130,0.8A4.2,4.2,0,0,1,134.2,5V35a4.2,4.2,0,0,1-4.2,4.2H5A4.2,4.2,0,0,1,.8,35V5A4.2,4.2,0,0,1,5,.8H130m0-.8H5A5,5,0,0,0,0,5V35a5,5,0,0,0,5,5H130a5,5,0,0,0,5-5V5a5,5,0,0,0-5-5h0Z"
          style="fill:#a6a6a6"/>
    <path d="M47.42,10.24a2.71,2.71,0,0,1-.75,2,2.91,2.91,0,0,1-2.2.89A3.09,3.09,0,0,1,41.35,10a3.09,3.09,0,0,1,3.12-3.13,3.1,3.1,0,0,1,1.23.25,2.47,2.47,0,0,1,.94.67l-0.53.53a2,2,0,0,0-1.64-.71A2.32,2.32,0,0,0,42.14,10a2.36,2.36,0,0,0,4,1.73,1.89,1.89,0,0,0,.5-1.22H44.47V9.79h2.91A2.54,2.54,0,0,1,47.42,10.24Z"
          style="fill:#fff;stroke:#fff;stroke-miterlimit:10;stroke-width:0.2px"/>
    <path d="M52,7.74H49.3v1.9h2.46v0.72H49.3v1.9H52V13h-3.5V7H52V7.74Z"
          style="fill:#fff;stroke:#fff;stroke-miterlimit:10;stroke-width:0.2px"/>
    <path d="M55.28,13H54.51V7.74H52.83V7H57V7.74H55.28V13Z"
          style="fill:#fff;stroke:#fff;stroke-miterlimit:10;stroke-width:0.2px"/>
    <path d="M59.94,13V7h0.77v6H59.94Z" style="fill:#fff;stroke:#fff;stroke-miterlimit:10;stroke-width:0.2px"/>
    <path d="M64.13,13H63.36V7.74H61.68V7H65.8V7.74H64.13V13Z"
          style="fill:#fff;stroke:#fff;stroke-miterlimit:10;stroke-width:0.2px"/>
    <path d="M73.61,12.22a3.12,3.12,0,0,1-4.4,0A3.07,3.07,0,0,1,68.33,10a3.07,3.07,0,0,1,.88-2.22,3.1,3.1,0,0,1,4.4,0A3.07,3.07,0,0,1,74.49,10,3.07,3.07,0,0,1,73.61,12.22Zm-3.83-.5a2.31,2.31,0,0,0,3.26,0A2.35,2.35,0,0,0,73.71,10,2.35,2.35,0,0,0,73,8.28a2.31,2.31,0,0,0-3.26,0A2.35,2.35,0,0,0,69.11,10,2.35,2.35,0,0,0,69.78,11.72Z"
          style="fill:#fff;stroke:#fff;stroke-miterlimit:10;stroke-width:0.2px"/>
    <path d="M75.58,13V7h0.94l2.92,4.67h0l0-1.16V7H80.2v6H79.4L76.35,8.11h0l0,1.16V13H75.58Z"
          style="fill:#fff;stroke:#fff;stroke-miterlimit:10;stroke-width:0.2px"/>
    <path d="M68.14,21.75A4.25,4.25,0,1,0,72.41,26,4.19,4.19,0,0,0,68.14,21.75Zm0,6.83A2.58,2.58,0,1,1,70.54,26,2.46,2.46,0,0,1,68.14,28.58Zm-9.31-6.83A4.25,4.25,0,1,0,63.09,26,4.19,4.19,0,0,0,58.82,21.75Zm0,6.83A2.58,2.58,0,1,1,61.22,26,2.46,2.46,0,0,1,58.82,28.58ZM47.74,23.06v1.8h4.32a3.77,3.77,0,0,1-1,2.27,4.42,4.42,0,0,1-3.33,1.32,4.8,4.8,0,0,1,0-9.6A4.6,4.6,0,0,1,51,20.14l1.27-1.27A6.29,6.29,0,0,0,47.74,17a6.61,6.61,0,1,0,0,13.21,6,6,0,0,0,4.61-1.85,6,6,0,0,0,1.56-4.22,5.87,5.87,0,0,0-.1-1.13H47.74Zm45.31,1.4a4,4,0,0,0-3.64-2.71,4,4,0,0,0-4,4.25,4.16,4.16,0,0,0,4.22,4.25,4.23,4.23,0,0,0,3.54-1.88l-1.45-1a2.43,2.43,0,0,1-2.09,1.18,2.16,2.16,0,0,1-2.06-1.29l5.69-2.35Zm-5.8,1.42a2.33,2.33,0,0,1,2.22-2.48,1.65,1.65,0,0,1,1.58.9ZM82.63,30H84.5V17.5H82.63V30Zm-3.06-7.3H79.5a3,3,0,0,0-2.24-1,4.26,4.26,0,0,0,0,8.51,2.9,2.9,0,0,0,2.24-1h0.06V29.9c0,1.63-.87,2.5-2.27,2.5a2.35,2.35,0,0,1-2.14-1.51l-1.63.68a4.05,4.05,0,0,0,3.77,2.51c2.19,0,4-1.29,4-4.43V22H79.57V22.7Zm-2.14,5.88a2.59,2.59,0,0,1,0-5.16A2.4,2.4,0,0,1,79.7,26,2.38,2.38,0,0,1,77.42,28.58ZM101.81,17.5H97.33V30H99.2V25.26h2.61A3.89,3.89,0,1,0,101.81,17.5Zm0,6H99.2V19.24h2.65A2.14,2.14,0,1,1,101.85,23.52Zm11.53-1.8a3.5,3.5,0,0,0-3.33,1.91l1.66,0.69a1.77,1.77,0,0,1,1.7-.92,1.8,1.8,0,0,1,2,1.61v0.13a4.13,4.13,0,0,0-1.95-.48c-1.79,0-3.6,1-3.6,2.81a2.89,2.89,0,0,0,3.1,2.75A2.63,2.63,0,0,0,115.32,29h0.06v1h1.8V25.19C117.18,23,115.52,21.73,113.39,21.73Zm-0.23,6.85a1.3,1.3,0,0,1-1.46-1.06c0-1,1.06-1.33,2-1.33a3.32,3.32,0,0,1,1.7.42A2.26,2.26,0,0,1,113.16,28.58ZM123.74,22l-2.14,5.42h-0.06L119.32,22h-2l3.33,7.58-1.9,4.21h1.95L125.82,22h-2.07Zm-16.81,8h1.87V17.5h-1.87V30Z"
          style="fill:#fff"/>
    <path d="M10.44,7.54A2,2,0,0,0,10,8.94V31.06a2,2,0,0,0,.46,1.4l0.07,0.07L22.9,20.15V19.85L10.51,7.47Z"
          style="fill:url(#a)"/>
    <path d="M27,24.28L22.9,20.15V19.85L27,15.72l0.09,0.05L32,18.56c1.4,0.79,1.4,2.09,0,2.89l-4.89,2.78Z"
          style="fill:url(#b)"/>
    <path d="M27.12,24.23L22.9,20,10.44,32.46a1.63,1.63,0,0,0,2.08.06l14.61-8.3" style="fill:url(#c)"/>
    <path d="M27.12,15.78L12.51,7.48a1.63,1.63,0,0,0-2.08.06L22.9,20Z" style="fill:url(#d)"/>
    <path d="M27,24.13L12.51,32.38a1.67,1.67,0,0,1-2,0h0l-0.07.07h0l0.07,0.07h0a1.66,1.66,0,0,0,2,0l14.61-8.3Z"
          style="opacity:0.2;isolation:isolate"/>
    <path d="M10.44,32.32a2,2,0,0,1-.46-1.4v0.15a2,2,0,0,0,.46,1.4l0.07-.07Z" style="opacity:0.12;isolation:isolate"/>
    <path d="M32,21.3l-5,2.83,0.09,0.09L32,21.44a1.75,1.75,0,0,0,1-1.44h0A1.86,1.86,0,0,1,32,21.3Z"
          style="opacity:0.12;isolation:isolate"/>
    <path d="M12.51,7.62L32,18.7a1.86,1.86,0,0,1,1,1.3h0a1.75,1.75,0,0,0-1-1.44L12.51,7.48C11.12,6.68,10,7.34,10,8.94V9.09C10,7.49,11.12,6.83,12.51,7.62Z"
          style="fill:#fff;opacity:0.25;isolation:isolate"/>
</svg>
