<?xml version="1.0" encoding="utf-8"?>
<!-- Generator: Adobe Illustrator 19.0.0, SVG Export Plug-In . SVG Version: 6.00 Build 0)  -->
<svg version="1.1" id="Layer_1" xmlns="http://www.w3.org/2000/svg" xmlns:xlink="http://www.w3.org/1999/xlink" x="0px" y="0px"
	 viewBox="0 0 179 169.5" style="enable-background:new 0 0 179 169.5;" xml:space="preserve">
<style type="text/css">
	.st0{fill:#4388A3;}
</style>
<g id="XMLID_56_">
	<path id="XMLID_88_" class="st0" d="M68.7,121.4c-2.8-0.5-5.5,0.5-7.6,2.5c-2.2-1.9-5-2.6-7.8-1.9c-3.9,0.9-6.9,4.4-7.4,8.7
		c-0.4,3.3,0.3,11.7,15,19c0.5,0.3,1.1,0.3,1.7,0.2l0,0l0,0c0.3-0.1,0.5-0.2,0.8-0.3c14.1-8.4,14.1-16.8,13.5-20.1
		C76,125.4,72.7,122.1,68.7,121.4L68.7,121.4z M61.8,144.5c-7.3-4-11.4-8.8-10.9-13.2c0.3-2.5,2-4,3.5-4.3c1.7-0.4,3.4,0.4,4.6,2.4
		l0,0c0.2,0.3,0.5,0.6,0.9,0.8c1.2,0.7,2.8,0.2,3.5-1c1.1-2,2.7-3,4.4-2.7c1.6,0.3,3.4,1.6,3.8,4C72.6,134.9,68.9,140,61.8,144.5
		L61.8,144.5z M61.8,144.5"/>
	<path id="XMLID_84_" class="st0" d="M53.6,49.6c-2.8-0.6-5.6,0.1-7.8,2c-2.1-2-4.8-2.9-7.7-2.4c-4,0.7-7.2,4-8,8.2
		c-0.6,3.3-0.4,11.7,13.7,19.9c0.6,0.3,1.2,0.4,1.8,0.3l0,0l0,0c0.2,0,0.4-0.1,0.6-0.2C60.9,70,61.5,61.6,61.1,58.3
		C60.6,54,57.6,50.6,53.6,49.6L53.6,49.6z M56,58.9c0.5,4.4-3.5,9.3-10.8,13.3c-7.1-4.4-10.8-9.5-10-13.9c0.4-2.4,2.2-3.8,3.8-4.1
		c1.7-0.3,3.3,0.6,4.5,2.6l0,0c0.2,0.4,0.5,0.7,0.8,0.9c1.2,0.8,2.8,0.4,3.5-0.8c1.3-1.9,2.9-2.8,4.6-2.4C54,55,55.7,56.5,56,58.9
		L56,58.9z M56,58.9"/>
	<path id="XMLID_80_" class="st0" d="M135.8,110.7c-2.3-3.7-6.4-5.6-10.4-4.7c-2.8,0.6-5,2.4-6.2,5.1c-2.8-1-5.6-0.6-8,1
		c-3.4,2.3-4.9,6.6-3.8,10.8c0.8,3.2,4.5,10.8,20.7,12.4c0.3,0,0.5,0,0.8,0l0,0c0.6-0.1,1.1-0.4,1.4-0.9
		C140.5,121.4,137.6,113.5,135.8,110.7L135.8,110.7z M127.2,129.9c-8.3-1.1-13.8-4.2-14.9-8.4c-0.6-2.4,0.4-4.4,1.7-5.3
		c1.4-1,3.2-0.8,5.1,0.5c0.3,0.3,0.7,0.5,1.2,0.5c1.4,0.2,2.7-0.8,2.9-2.2c0.3-2.3,1.4-3.7,3.1-4.1l0.1,0c1.6-0.3,3.7,0.3,5,2.4
		C133.8,117.1,132.2,123.2,127.2,129.9L127.2,129.9z M127.2,129.9"/>
	<g id="XMLID_57_">
		<path id="XMLID_76_" class="st0" d="M118.9,37.7c-2.5-3.5-6.8-5.1-10.7-4c-2.8,0.8-4.8,2.7-5.9,5.5c-2.8-0.8-5.6-0.3-7.9,1.5
			c-3.2,2.5-4.4,6.9-3.1,11c1,3.1,5.2,10.5,21.5,11c0.2,0,0.4,0,0.6-0.1l0,0c0.6-0.1,1.2-0.5,1.5-1
			C124.3,48.1,120.8,40.3,118.9,37.7L118.9,37.7z M111.6,57.4c-8.3-0.5-14-3.3-15.4-7.4c-0.8-2.4,0.1-4.4,1.4-5.4
			c1.4-1.1,3.2-1,5.1,0.1c0.4,0.3,0.8,0.4,1.3,0.4c1.4,0.1,2.6-0.9,2.7-2.4c0.2-2.3,1.2-3.8,2.9-4.3c1.5-0.4,3.7,0.1,5.2,2.1
			C117.3,44.2,116.1,50.4,111.6,57.4L111.6,57.4z M111.6,57.4"/>
		<path id="XMLID_59_" class="st0" d="M139,18l-3.6-16c-0.3-1.4-1.7-2.2-3.1-1.9c-0.1,0-20.4,7.1-64.7,16.9
			C23.6,26.9,2.1,29.1,2,29.1c-1.4,0.3-2.2,1.7-1.9,3.1l3.6,16c-6,38.1,11.2,116,11.9,119.3c0.3,1.4,1.7,2.2,3.1,1.9l66.1-14.7
			c1.1-0.2,1.9-1.2,2-2.3l3.2-36.3l18.3,31.5c0.6,1,1.7,1.5,2.8,1.2l66.1-14.7c1.4-0.3,2.2-1.7,1.9-3.1C178.2,127.7,160.7,50,139,18
			L139,18z M152,134.4c-2-3-2.6-5.9-1.6-8.2c0.8-1.7,2.3-2.8,3.9-2.8c1.6-0.1,3,0.9,4,2.8l0,0c0.2,0.4,0.5,0.7,0.8,0.9
			c1.2,0.8,2.8,0.5,3.6-0.7c1.5-2.2,3.6-2.9,5.5-2c1.7,0.9,3.1,3,2.5,5.8L152,134.4L152,134.4z M139.6,28.9
			c-1.5,1.6-3.5,3.2-5.9,4.7c-4.6-2.4-7.9-5.2-9.7-8.1c5.6-1.6,9.4-2.8,11.5-3.5C137,24.2,138.3,26.5,139.6,28.9L139.6,28.9z
			 M5.7,33.8c7.2-0.9,27.9-4,63.2-11.8c35.3-7.9,55.4-13.9,62.2-16.1l2.6,11.5c-6.2,2-26.1,8.1-62.2,16.1c-36,8-56.7,11-63.2,11.8
			L5.7,33.8z M79.1,37l10.7,47.9c0.8,3.6-1.5,7.2-5.1,8c-3.6,0.8-7.2-1.5-8-5.1L66,39.9c2.1-0.5,4.3-0.9,6.5-1.4
			C74.8,38,76.9,37.5,79.1,37L79.1,37z M8.5,50.4c2.2-0.3,6.1-0.8,11.9-1.7C20,52,18.2,55.9,15,60.1c-2.8-0.4-5.2-1-7.3-1.8
			C7.9,55.5,8.1,52.9,8.5,50.4L8.5,50.4z M41.3,159.1l-18.7,4.2c-1.7-2.4-1.3-4.9-0.2-6.4c1.3-1.7,3.5-1.9,5.8-0.6l0,0
			c0.3,0.2,0.7,0.3,1.2,0.4c1.4,0.1,2.6-1,2.7-2.4c0.1-2.1,1-3.6,2.4-4.2c1.5-0.6,3.4-0.3,4.8,0.9C41.2,152.6,41.9,155.5,41.3,159.1
			L41.3,159.1z M90.2,106.5L90.2,106.5c-0.4-0.7-1.1-1.2-2-1.3c-1.4-0.1-2.6,0.9-2.8,2.3l-3.7,42.5l-35.1,7.8
			c0.3-4.5-1.1-8.3-4-10.8c-2.9-2.5-6.8-3.1-10.1-1.7c-2.3,1-4,2.8-4.9,5.3c-3.9-1-7.3,0.7-9.3,3.1c-0.1,0.2-0.2,0.3-0.4,0.5
			c-1.2-6-2.6-13.7-4.1-22.5c2.8,2.9,7.7,5.7,16.3,7.1c0.3,0.1,0.7,0,1,0l0,0l0,0c0.5-0.1,1-0.4,1.3-0.8
			c10.9-12.1,8.5-20.2,6.9-23.2c-2-3.8-6.1-6-10.1-5.4c-2.9,0.4-5.2,2.1-6.6,4.7c-2.7-1.1-5.6-1-8,0.5c-1.2,0.7-2.3,1.7-3,2.9
			c-1-7.1-2-14.5-2.7-21.9c2,2.3,4.7,4.7,8.6,7.2c0.6,0.4,1.3,0.5,1.9,0.3l0,0c0.2,0,0.3-0.1,0.5-0.2C35,96.1,35.9,87.7,35.7,84.4
			c-0.4-4.3-3.2-7.9-7.2-8.9c-2.8-0.7-5.6-0.1-7.9,1.7c-2-2.1-4.7-3.1-7.6-2.7c-2,0.3-3.9,1.2-5.4,2.6c-0.2-4.7-0.3-9.2-0.2-13.4
			c2.5,0.8,5.3,1.4,8.4,1.7c0.3,0,0.6,0,0.8,0l0,0l0,0c0.5-0.1,1.1-0.4,1.4-0.9c5.7-7.1,7.3-12.7,7.4-16.6
			c8.7-1.5,20.5-3.7,35.4-6.8l9.9,44.4c-2.4-2.1-5.6-2.9-8.7-2.2c-2.8,0.7-4.9,2.6-6,5.3c-2.8-0.8-5.6-0.4-7.9,1.3
			c-3.3,2.4-4.6,6.8-3.4,10.9c0.9,3.2,4.9,10.6,21.2,11.6c0.2,0,0.5,0,0.7-0.1l0,0l0,0c0.6-0.1,1.1-0.5,1.5-1
			c5.2-7.1,6.6-12.6,6.6-16.6c2.8,2.8,6.8,4.1,10.9,3.2c4.1-0.9,7.2-3.8,8.5-7.5c1.7,3.7,5.3,8,13,12.2c0.6,0.3,1.2,0.4,1.8,0.3
			l0-0.1l0,0c0.2-0.1,0.5-0.1,0.7-0.2c14.4-7.8,14.8-16.2,14.3-19.5c-0.6-4.3-3.7-7.7-7.7-8.5c-2.8-0.6-5.6,0.2-7.8,2.2
			c-2.2-2-4.9-2.8-7.7-2.2c-3.1,0.6-5.6,2.7-6.9,5.6l-9.9-44.4c14.9-3.5,26.5-6.5,35-8.9c1.7,3.5,5.6,7.9,13.8,11.9
			c0.5,0.3,1.1,0.3,1.7,0.2l0,0l0,0c0.3-0.1,0.5-0.2,0.8-0.3c2.7-1.6,4.9-3.3,6.8-5.1c1.9,3.8,3.7,8,5.5,12.3c-1.9-0.7-4-0.7-6-0.1
			c-2.7,0.9-4.7,2.9-5.7,5.7c-2.9-0.7-5.6-0.1-7.8,1.8c-3.1,2.6-4.2,7.1-2.7,11.1c1.1,3.1,5.6,10.3,21.9,10.2c0.2,0,0.4,0,0.5-0.1
			l0,0c0.6-0.1,1.2-0.5,1.6-1.1c2.5-3.9,3.9-7.3,4.7-10.2c2.5,7,4.8,14.1,6.9,21c-1.2-0.7-2.6-1.2-4-1.4c-2.9-0.3-5.5,0.8-7.5,3
			c-2.4-1.7-5.2-2.3-7.9-1.4c-3.9,1.2-6.6,4.9-6.9,9.2c-0.2,3.3,1.1,11.7,16.1,18c0.5,0.2,1,0.3,1.5,0.1l0,0
			c0.3-0.1,0.6-0.2,0.9-0.4c7.2-4.9,10.4-9.6,11.7-13.3c2.4,8.6,4.4,16.3,5.9,22.1c-0.2-0.1-0.4-0.2-0.6-0.3
			c-2.8-1.4-6.6-1.4-9.7,1.1c-1.8-1.8-4.1-2.8-6.6-2.7c-3.6,0.1-6.9,2.4-8.4,5.9c-1.6,3.5-1.2,7.5,1,11.5l-35.1,7.8L90.2,106.5z
			 M15.3,124.2c-0.5-2.4,0.7-4.4,2.1-5.2c1.5-0.9,3.3-0.6,5.1,0.9l0,0c0.3,0.3,0.7,0.4,1.1,0.5c1.4,0.3,2.7-0.6,3-2
			c0.5-2.3,1.7-3.6,3.4-3.9c1.6-0.2,3.7,0.5,4.9,2.7c2.1,3.9,0.1,9.9-5.3,16.3C21.5,131.9,16.2,128.5,15.3,124.2L15.3,124.2z
			 M9.8,83.5c0.5-2.4,2.4-3.7,3.9-3.9c1.8-0.2,3.3,0.8,4.4,2.8l0,0c0.2,0.4,0.4,0.7,0.8,0.9c1.2,0.8,2.8,0.5,3.6-0.6
			c1.3-1.9,3-2.7,4.7-2.2c1.5,0.4,3.2,1.9,3.4,4.4c0.4,4.4-3.8,9.1-11.3,12.9C12.4,93,8.8,87.8,9.8,83.5L9.8,83.5z M65,107.2
			c-8.3-0.7-14-3.6-15.2-7.8C49,96.9,50,94.9,51.3,94c1.4-1.1,3.3-0.9,5.2,0.3l0,0c0.3,0.2,0.7,0.4,1.1,0.4c1.4,0.1,2.7-0.9,2.8-2.3
			c0.2-2.3,1.3-3.8,3-4.2c1.5-0.4,3.7,0.1,5.1,2.2C71,94.1,69.7,100.3,65,107.2L65,107.2z M98.2,83.8c0.4-2.5,2.1-3.9,3.7-4.2
			c1.7-0.3,3.3,0.6,4.5,2.5l0,0c0.2,0.3,0.5,0.7,0.9,0.9c1.2,0.7,2.8,0.4,3.5-0.9c1.2-2,2.8-2.9,4.5-2.5c1.6,0.3,3.3,1.7,3.7,4.2
			c0.7,4.3-3.2,9.4-10.5,13.6C101.4,93.2,97.5,88.2,98.2,83.8L98.2,83.8z M145.9,69.5c-8.3-0.2-14.2-2.7-15.7-6.8
			c-0.9-2.3,0-4.4,1.2-5.4c1.4-1.1,3.2-1.1,5.2,0l0,0c0.3,0.2,0.7,0.3,1.2,0.3c1.4,0.1,2.6-1,2.7-2.5c0.1-2.3,1.1-3.9,2.8-4.4
			c1.5-0.5,3.7-0.1,5.2,1.9C151.1,56.1,150.2,62.3,145.9,69.5L145.9,69.5z M160.7,91.8c1.1,4.3-2.3,9.6-9,14.5
			c-7.6-3.5-11.9-8.1-11.7-12.5c0.1-2.5,1.7-4.1,3.2-4.5c1.7-0.5,3.3,0.2,4.7,2c0.2,0.4,0.6,0.7,1,0.9c1.3,0.6,2.8,0.1,3.4-1.2
			c1-2.1,2.5-3.1,4.3-3C158.2,88.1,160.1,89.4,160.7,91.8L160.7,91.8z M160.7,91.8"/>
	</g>
</g>
</svg>
