<?xml version="1.0" encoding="utf-8"?>
<!-- Generator: Adobe Illustrator 19.0.0, SVG Export Plug-In . SVG Version: 6.00 Build 0)  -->
<svg version="1.1" id="Layer_1" xmlns="http://www.w3.org/2000/svg" xmlns:xlink="http://www.w3.org/1999/xlink" x="0px" y="0px"
	 viewBox="0 0 82.3 39.6" style="enable-background:new 0 0 82.3 39.6;" xml:space="preserve">
<style type="text/css">
	.st0{fill:#FFFFFF;}
	.st1{fill:#66D3D3;}
</style>
<g id="XMLID_12_">
	<g id="XMLID_120_">
		<circle id="XMLID_38_" class="st0" cx="41" cy="12.7" r="11.7"/>
		<path id="XMLID_117_" class="st1" d="M41,25.3c-7,0-12.7-5.7-12.7-12.7S34,0,41,0s12.7,5.7,12.7,12.7S48,25.3,41,25.3z M41,2
			c-5.9,0-10.7,4.8-10.7,10.7c0,5.9,4.8,10.7,10.7,10.7c5.9,0,10.7-4.8,10.7-10.7C51.7,6.8,46.9,2,41,2z"/>
	</g>
	<g id="XMLID_116_">
		<circle id="XMLID_40_" class="st0" cx="18.7" cy="24.7" r="11.7"/>
		<path id="XMLID_113_" class="st1" d="M18.7,37.3c-7,0-12.7-5.7-12.7-12.7S11.7,12,18.7,12s12.7,5.7,12.7,12.7S25.7,37.3,18.7,37.3
			z M18.7,14C12.8,14,8,18.8,8,24.7c0,5.9,4.8,10.7,10.7,10.7c5.9,0,10.7-4.8,10.7-10.7C29.3,18.8,24.5,14,18.7,14z"/>
	</g>
	<g id="XMLID_112_">
		<circle id="XMLID_44_" class="st0" cx="29.9" cy="24.6" r="10.6"/>
		<path id="XMLID_109_" class="st1" d="M29.9,36.2c-6.4,0-11.6-5.2-11.6-11.6c0-6.4,5.2-11.6,11.6-11.6s11.6,5.2,11.6,11.6
			C41.5,31,36.3,36.2,29.9,36.2z M29.9,15c-5.3,0-9.6,4.3-9.6,9.6s4.3,9.6,9.6,9.6s9.6-4.3,9.6-9.6S35.2,15,29.9,15z"/>
	</g>
	<g id="XMLID_108_">
		<circle id="XMLID_39_" class="st0" cx="60.3" cy="23" r="12"/>
		<path id="XMLID_105_" class="st1" d="M60.3,36c-7.2,0-13-5.8-13-13s5.8-13,13-13s13,5.8,13,13S67.5,36,60.3,36z M60.3,12
			c-6.1,0-11,4.9-11,11s4.9,11,11,11s11-4.9,11-11S66.4,12,60.3,12z"/>
	</g>
	<g id="XMLID_104_">
		<circle id="XMLID_45_" class="st0" cx="44.3" cy="30.3" r="8.3"/>
		<path id="XMLID_101_" class="st1" d="M44.3,39.6c-5.1,0-9.3-4.2-9.3-9.3s4.2-9.3,9.3-9.3c5.1,0,9.3,4.2,9.3,9.3
			S49.5,39.6,44.3,39.6z M44.3,23c-4,0-7.3,3.3-7.3,7.3c0,4,3.3,7.3,7.3,7.3c4,0,7.3-3.3,7.3-7.3C51.7,26.3,48.4,23,44.3,23z"/>
	</g>
	<g id="XMLID_100_">
		<circle id="XMLID_46_" class="st0" cx="74.7" cy="23.7" r="6.7"/>
		<path id="XMLID_97_" class="st1" d="M74.7,31.3c-4.2,0-7.7-3.4-7.7-7.7s3.4-7.7,7.7-7.7s7.7,3.4,7.7,7.7S78.9,31.3,74.7,31.3z
			 M74.7,18c-3.1,0-5.7,2.5-5.7,5.7c0,3.1,2.5,5.7,5.7,5.7c3.1,0,5.7-2.5,5.7-5.7C80.3,20.5,77.8,18,74.7,18z"/>
	</g>
	<g id="XMLID_96_">
		<circle id="XMLID_36_" class="st0" cx="6.7" cy="26.6" r="5.7"/>
		<path id="XMLID_93_" class="st1" d="M6.7,33.3c-3.7,0-6.7-3-6.7-6.7S3,20,6.7,20c3.7,0,6.7,3,6.7,6.7S10.3,33.3,6.7,33.3z M6.7,22
			C4.1,22,2,24.1,2,26.6s2.1,4.7,4.7,4.7s4.7-2.1,4.7-4.7S9.2,22,6.7,22z"/>
	</g>
	<g id="XMLID_92_">
		<circle id="XMLID_88_" class="st0" cx="54.3" cy="11" r="6"/>
		<path id="XMLID_89_" class="st1" d="M54.3,18c-3.9,0-7-3.1-7-7s3.1-7,7-7s7,3.1,7,7S58.1,18,54.3,18z M54.3,6c-2.8,0-5,2.2-5,5
			s2.2,5,5,5s5-2.2,5-5S57,6,54.3,6z"/>
	</g>
</g>
</svg>
