<svg xmlns="http://www.w3.org/2000/svg" width="50" height="50" viewBox="0 0 24 24">
    <path fill="#66D3D3"  d="M20.712 6.142c0 4.511-4.14 8.086-11.164 8.086h-2.048l-1.568 6.772h-4.932l4.816-21h8.174c4.337 0 6.722 2.62 6.722 6.142zm-5.175.136c0-1.89-1.623-2.278-3.511-2.278h-2.177l-1.442 6h1.937c2.815 0 5.193-.939 5.193-3.722zm6.594-1.012c.932 7.054-6.177 10.677-13.444 10.58l-1.435 6.154h-3.415l-.386 2h5.275l1.498-6.469c8.444-.245 12.776-4.993 12.776-9.201 0-1.086-.288-2.137-.869-3.064z"/>
</svg>