<?xml version="1.0" encoding="utf-8"?>
<!-- Generator: Adobe Illustrator 19.0.0, SVG Export Plug-In . SVG Version: 6.00 Build 0)  -->
<svg version="1.1" id="Layer_1" xmlns="http://www.w3.org/2000/svg" xmlns:xlink="http://www.w3.org/1999/xlink" x="0px" y="0px"
	 viewBox="-287 312.4 224.9 176.6" style="enable-background:new -287 312.4 224.9 176.6;" xml:space="preserve">
<style type="text/css">
	.st0{fill:#FFFFFF;}
	.st1{fill:#E5954C;}
	.st2{fill:#C67C40;}
	.st3{fill:#FCFFF7;}
	.st4{fill:#BF3D3D;}
	.st5{fill:#E2E2E2;}
</style>
<g id="XMLID_5_">
	<path id="XMLID_111_" class="st0" d="M-80.7,411.9c0.2,0,0.4,0.1,0.6,0.2c0.2,0.1,0.2,0.3,0.2,0.6c0,0.3-0.1,0.5-0.3,0.7
		c-0.2,0.2-0.4,0.3-0.6,0.3s-0.4-0.1-0.6-0.2c-0.2-0.1-0.2-0.4-0.2-0.6s0.1-0.5,0.3-0.7C-81.1,412-80.9,411.9-80.7,411.9z"/>
	<path id="XMLID_113_" class="st0" d="M-77.8,413.7c-0.2,0-0.4-0.1-0.6-0.2s-0.2-0.4-0.2-0.6c0-0.2,0.1-0.6,0.2-1.1
		c0.1-0.5,0.3-0.9,0.4-1.3s0.2-0.6,0.2-0.8c0-0.2,0-0.2-0.1-0.2c-0.2,0-0.5,0.4-1,1.2l-0.6-0.3c0.9-1.5,1.7-2.2,2.4-2.2
		c0.5,0,0.7,0.3,0.7,0.9c0,0.2-0.1,0.5-0.2,0.9l-0.6,1.8c-0.1,0.2-0.1,0.3-0.1,0.5c0,0.2,0.1,0.2,0.2,0.2c0.2,0,0.6-0.4,1.1-1.1
		l0.4,0.3c-0.3,0.6-0.7,1.1-1.1,1.4C-77.2,413.5-77.5,413.7-77.8,413.7z M-75.3,405.6c0,0.2-0.1,0.5-0.2,0.6s-0.4,0.3-0.6,0.3
		s-0.5-0.1-0.6-0.2c-0.1-0.1-0.2-0.4-0.2-0.6c0-0.2,0.1-0.5,0.3-0.7s0.4-0.3,0.6-0.3s0.5,0.1,0.6,0.2
		C-75.3,405.2-75.3,405.4-75.3,405.6z"/>
	<path id="XMLID_116_" class="st0" d="M-75.1,411.4c0-0.4,0.1-0.9,0.3-1.3c0.2-0.4,0.5-0.8,0.8-1c0.8-0.6,1.5-0.9,2.3-0.9
		s1.4,0.2,1.9,0.6s0.7,0.9,0.7,1.6c0,0.7-0.2,1.2-0.5,1.7s-0.8,0.9-1.4,1.2s-1.2,0.4-1.8,0.4c-0.7,0-1.2-0.2-1.7-0.6
		C-74.9,412.6-75.1,412.1-75.1,411.4z M-72.2,413.1c0.3,0,0.5-0.1,0.8-0.3c0.2-0.2,0.4-0.4,0.5-0.7c0.2-0.5,0.4-1.1,0.4-1.7
		s-0.1-1-0.3-1.3c-0.2-0.3-0.5-0.4-0.9-0.4s-0.8,0.3-1.1,0.8c-0.4,0.5-0.6,1.1-0.6,1.9C-73.5,412.6-73.1,413.1-72.2,413.1z"/>
</g>
<path id="XMLID_4_" class="st1" d="M-194,313.1l23.8,15.6c1.3,0.9,3,0.9,4.4,0.2l28.6-15.4c2.4-1.3,5.3-0.1,6.2,2.5l7.2,22.2
	c0.6,1.9,2.4,3.1,4.3,3l30.7-1.5c3.2-0.2,5.4,3.1,4.2,6l-9,21.4c-0.9,2.1,0,4.6,2.1,5.6l22.9,10.8c3,1.4,3.3,5.5,0.6,7.4l-22.9,16.3
	c-1.8,1.3-2.3,3.6-1.3,5.5l10.5,19.8c1.4,2.6-0.2,5.8-3.1,6.3l-31.9,5.3c-1.7,0.3-3.1,1.6-3.5,3.2l-6,24.9c-0.6,2.4-3.1,3.8-5.5,3.1
	l-29.6-9.3c-1.5-0.5-3.1-0.1-4.2,0.9l-23,20.9c-1.8,1.7-4.7,1.4-6.3-0.5l-15.9-20.1c-1.1-1.4-2.9-1.9-4.5-1.5l-31.2,8.7
	c-2.8,0.8-5.6-1.5-5.5-4.4l1.2-22.4c0.1-2.2-1.4-4.1-3.5-4.5l-27.6-5.2c-3.2-0.6-4.6-4.5-2.5-7l16.2-19.4c1.5-1.8,1.3-4.4-0.4-5.9
	l-17.1-15.7c-2.3-2.1-1.6-6,1.3-7.2l28.5-11.5c1.8-0.7,2.9-2.6,2.7-4.5l-2.9-23.2c-0.3-2.7,1.9-5,4.5-4.8l32.4,2
	c1.6,0.1,3.1-0.7,3.9-2l15.2-24.3C-198.7,312.4-196,311.8-194,313.1z"/>
<g id="XMLID_1_">
	<path id="XMLID_73_" class="st2" d="M-248.7,429.1c-1.3,0.6-2.6,1.1-3.8,1.7c-0.4,0.2-0.8,0.4-1.1,0.5c-0.3,0.1-0.6,0.1-0.8,0.1
		c-0.2,0-0.4,0-0.6-0.1c-0.2,0-0.3-0.1-0.5-0.2c-0.4-0.1-0.8-0.3-1.1-0.5c-0.3-0.2-0.8-0.4-1.4-0.7c-0.4-0.2-0.8-0.5-1-0.8
		c-0.3-0.3-0.4-0.8-0.5-1.3c-0.1-0.8-0.2-1.8-0.4-3c-0.1-1.1-0.2-2.4-0.3-3.7c-0.1-1.3-0.2-2.7-0.2-4.2s-0.1-2.9-0.1-4.3
		c0-1.4,0-2.8,0-4.2c0-1.3,0-2.6,0.1-3.7c0.1-0.7,0.3-1.1,0.5-1.3c0.3-0.2,0.8-0.3,1.5-0.2c0.7,0,1.4,0.1,2.3,0.2
		c0.8,0.1,1.6,0.3,2.2,0.6c0.6,0.3,1,0.5,1.2,0.8c0.2,0.3,0.3,0.7,0.2,1.3c-0.1,1.3-0.2,2.8-0.3,4.4c-0.1,1.6-0.2,3.2-0.2,4.9
		c-0.1,1.7-0.1,3.3-0.1,5c0,1.7,0,3.2,0,4.8c0.9-0.4,1.8-0.7,2.6-1c0.8-0.3,1.7-0.6,2.7-0.8c0.6-0.2,1-0.2,1.4-0.2
		c0.3,0,0.7,0.2,1,0.6c0.3,0.3,0.6,0.7,0.9,1c0.2,0.3,0.4,0.7,0.6,1c0.2,0.4,0.3,0.7,0.3,0.8c0,0.2-0.4,0.4-1,0.7
		C-246.1,428-247.4,428.5-248.7,429.1z"/>
	<path id="XMLID_75_" class="st2" d="M-232.8,420.4c-1.5,0.6-2.8,1.2-3.9,1.7c-0.2,0.9-0.4,1.7-0.6,2.5c-0.2,0.8-0.3,1.5-0.4,2.3
		c-0.1,0.4-0.2,0.6-0.5,0.8c-0.2,0.1-0.6,0.1-1.1,0.1c-0.3,0-0.6-0.1-1-0.2c-0.4-0.1-0.7-0.1-1.1-0.2c-0.3-0.1-0.5-0.2-0.8-0.3
		c-0.2-0.1-0.4-0.2-0.5-0.3c-0.1-0.1-0.2-0.3-0.3-0.6c-0.1-0.3-0.1-0.6-0.1-1.1c0.2-1.5,0.4-3.4,0.8-5.5c0.4-2.1,0.8-4.3,1.2-6.6
		c0.5-2.3,0.9-4.5,1.4-6.8c0.5-2.2,1-4.2,1.5-6c0.2-0.6,0.5-1.2,0.9-1.7c0.4-0.5,1.1-0.8,2.1-0.9c0.9-0.2,1.6-0.3,2.3-0.3
		c0.7-0.1,1.3-0.1,1.9-0.1c0.6,0,1.1,0,1.6,0.1c0.5,0,1,0.1,1.5,0.1c0.7,0.1,1.2,0.3,1.4,0.6c0.3,0.3,0.4,0.8,0.5,1.4
		c0.2,1.5,0.5,3.2,0.9,5.2c0.4,1.9,0.8,3.9,1.2,6c0.4,2.1,0.9,4.2,1.4,6.3s0.9,4,1.4,5.8c0.1,0.4,0.1,0.7-0.1,0.8
		c-0.2,0.1-0.5,0.3-1,0.5c-0.5,0.1-1,0.2-1.5,0.3c-0.5,0.1-1,0.1-1.5,0c-0.5,0-0.9-0.1-1.2-0.3c-0.3-0.2-0.5-0.6-0.7-1.1
		c-0.2-0.6-0.4-1.2-0.7-1.9c-0.2-0.7-0.5-1.5-0.7-2.3C-229.8,419.3-231.3,419.9-232.8,420.4z M-232.5,414.7c0.9-0.3,1.9-0.6,2.8-0.9
		c-0.4-1.7-0.9-3.4-1.3-5.1c-0.4-1.7-0.8-3.4-1.1-5c-0.5,1.7-1,3.6-1.5,5.7s-1.1,4.2-1.6,6.4C-234.3,415.4-233.4,415-232.5,414.7z"
		/>
	<path id="XMLID_78_" class="st2" d="M-219.9,416.9c-0.4-1-0.8-2-1.1-3.3c-0.3-1.2-0.5-2.5-0.6-3.9c-0.1-1.4-0.2-2.8-0.3-4.3
		s-0.1-2.9,0-4.4c0-1.5,0.1-2.9,0.1-4.3c0-0.6,0.2-1.1,0.5-1.3c0.3-0.2,0.8-0.3,1.5-0.2c0.7,0,1.3,0.1,2,0.3
		c0.6,0.2,1.3,0.4,1.9,0.6c1.3,0.6,1.9,1.5,1.9,2.9c-0.1,1.2-0.2,2.4-0.2,3.7c-0.1,1.3-0.1,2.7-0.1,4.1c0,1.4,0,2.7,0.1,4
		c0.1,1.3,0.2,2.4,0.4,3.4c0.2,1,0.4,1.8,0.7,2.4c0.3,0.6,0.7,0.9,1.2,0.9c0.6,0,1.1-0.4,1.5-1.2c0.4-0.8,0.7-1.9,0.9-3.2
		c0.2-1.3,0.4-2.8,0.4-4.5c0.1-1.7,0.1-3.4,0.1-5.2c0-1.8,0-3.5-0.1-5.2c-0.1-1.7-0.1-3.2-0.2-4.6c-0.1-0.6,0-1.1,0.4-1.3
		c0.4-0.2,0.9-0.3,1.5-0.3s1.3,0.1,2.1,0.3c0.8,0.2,1.5,0.4,2.1,0.6c0.3,0.1,0.6,0.2,0.8,0.4c0.2,0.1,0.3,0.3,0.4,0.4
		c0.1,0.2,0.2,0.3,0.2,0.5c0,0.2,0,0.4,0,0.7c0.1,3.1,0.1,6,0,8.6c-0.1,2.6-0.2,5-0.5,7.1c-0.3,2.1-0.7,3.9-1.2,5.3
		c-0.5,1.5-1.2,2.6-2.1,3.4c-0.6,0.5-1.3,0.9-2,1.2s-1.5,0.5-2.5,0.7c-1.9,0.3-3.5,0.3-4.9-0.1c-0.6-0.2-1.2-0.4-1.7-0.7
		c-0.5-0.3-1.1-0.7-1.5-1.2C-219,418.7-219.5,417.9-219.9,416.9z"/>
	<path id="XMLID_80_" class="st2" d="M-186.9,396.2c0-2.8,0.1-5.4,0.1-7.7c0-0.6,0.2-1.1,0.5-1.3c0.3-0.2,0.8-0.3,1.5-0.3
		c0.3,0,0.6,0,0.9,0c0.3,0,0.5,0,0.8,0.1c0.3,0,0.5,0.1,0.8,0.2c0.3,0.1,0.7,0.2,1.1,0.3c0.7,0.2,1.1,0.5,1.3,0.9s0.2,0.8,0.2,1.4
		c-0.1,1.6-0.2,3.5-0.3,5.6s-0.1,4.2-0.2,6.3c0,2.1-0.1,4.2-0.1,6.2s0,3.8,0,5.3c0.1,0.8-0.5,1.2-1.7,1.2c-1,0-2,0-3.1-0.1
		c-1-0.1-1.8-0.6-2.4-1.4c-0.4-0.6-0.9-1.3-1.4-2s-1-1.6-1.6-2.5c-0.5-0.9-1.1-1.9-1.6-2.9c-0.6-1-1.1-2-1.6-3
		c0.1,1.3,0.1,2.7,0.2,4c0.1,1.3,0.1,2.6,0.2,3.9c0.1,1.2,0.1,2.4,0.2,3.4c0.1,1,0.1,2,0.2,2.7c0,0.4-0.1,0.6-0.3,0.8
		c-0.2,0.1-0.5,0.2-1.1,0.2c-0.5,0-1.1,0-1.6,0s-1.1-0.1-1.6-0.3c-0.5-0.1-0.9-0.3-1.1-0.6c-0.2-0.3-0.4-0.7-0.5-1.2
		c-0.1-0.6-0.2-1.4-0.4-2.4c-0.1-1.1-0.3-2.3-0.4-3.6c-0.1-1.4-0.3-2.8-0.4-4.4c-0.1-1.6-0.3-3.1-0.4-4.7c-0.1-1.6-0.2-3-0.3-4.5
		c-0.1-1.4-0.1-2.7-0.2-3.9c0-0.7,0.2-1.1,0.5-1.3c0.3-0.2,0.8-0.4,1.5-0.3c0.8,0.1,1.6,0.1,2.4,0.2c0.8,0.1,1.6,0.2,2.5,0.4
		c0.7,0.1,1.2,0.4,1.6,0.7c0.4,0.3,0.7,0.9,1,1.7c0.2,0.6,0.6,1.3,0.9,2.2c0.4,0.9,0.8,1.9,1.3,2.9s0.9,2.1,1.4,3.2s1,2.2,1.5,3.2
		C-186.8,401.8-186.9,399-186.9,396.2z"/>
	<path id="XMLID_82_" class="st2" d="M-177.2,385.9c1-0.6,2.1-1.2,3.2-1.7c1.2-0.5,2.4-0.8,3.6-1.1c1.3-0.2,2.5-0.3,3.8-0.1
		c1.3,0.2,2.5,0.5,3.7,1.2c1.2,0.6,2.3,1.6,3.3,2.8c0.8,1,1.5,2.1,1.9,3.4c0.5,1.3,0.7,2.7,0.7,4.2s-0.2,3-0.6,4.6
		c-0.4,1.6-1.1,3.1-2,4.6s-2.1,2.9-3.5,4.3s-3.1,2.6-5,3.6c-1,0.6-2.1,0.8-3.4,0.5c-0.6-0.2-1.2-0.3-1.7-0.5
		c-0.5-0.2-1.1-0.4-1.7-0.7c-0.3-0.1-0.5-0.3-0.7-0.4c-0.2-0.1-0.4-0.3-0.6-0.5c-0.2-0.2-0.3-0.5-0.5-0.8c-0.1-0.3-0.2-0.8-0.3-1.3
		l-2.8-20.2C-179,387.1-178.2,386.5-177.2,385.9z M-167.3,403.7c0.9-1.2,1.7-2.5,2.2-3.7s0.8-2.4,1-3.6c0.2-1.2,0.1-2.2,0-3.1
		c-0.2-1.3-0.6-2.2-1.1-2.9c-0.5-0.7-1.3-1-2.3-1.1c-1-0.1-2.2,0.2-3.4,0.9c-0.1,2.9-0.1,5.7-0.1,8.5c0.1,2.8,0.1,5.6,0.2,8.4
		C-169.4,406.1-168.2,404.9-167.3,403.7z"/>
	<path id="XMLID_85_" class="st2" d="M-147.7,402.5c0,1.2,0.1,2.4,0.1,3.6c0,0.4-0.1,0.6-0.3,0.8c-0.2,0.1-0.5,0.2-1,0.2
		c-0.6,0-1.1,0-1.6,0s-0.9,0-1.3-0.1c-0.4-0.1-0.8-0.4-1-0.6c-0.2-0.3-0.4-0.7-0.5-1.3c-0.1-0.4-0.1-1.1-0.3-1.9
		c-0.1-0.8-0.2-1.8-0.4-2.9c-0.1-1.1-0.3-2.2-0.4-3.5c-0.1-1.2-0.3-2.5-0.4-3.7c-0.1-1.2-0.2-2.5-0.3-3.6c-0.1-1.2-0.1-2.2-0.1-3.2
		s0.1-1.8,0.2-2.4c0.1-0.7,0.3-1.1,0.5-1.3c1.2-0.9,2.4-1.8,3.6-2.6c1.3-0.9,2.6-1.6,3.9-2.2c1.3-0.6,2.6-0.9,3.9-1
		c1.3-0.1,2.5,0.2,3.6,0.9c0.9,0.6,1.8,1.3,2.6,2.1s1.5,1.8,2.2,3c0.6,1.3,0.8,2.5,0.5,3.5c-0.4,1.6-1.3,3.2-2.7,4.8
		s-3.1,3.2-5.2,4.8c0.6,0.4,1.3,0.9,2,1.4s1.4,0.9,2.2,1.4c0.7,0.5,1.5,0.9,2.2,1.3c0.7,0.4,1.4,0.8,2,1.1c0.5,0.3,0.8,0.5,0.8,0.7
		c0,0.2-0.1,0.5-0.4,0.8c-0.3,0.4-0.6,0.6-0.8,0.7c-0.2,0.1-0.6,0.2-0.9,0.4c-0.4,0.2-0.9,0.4-1.5,0.5c-0.6,0.1-1.3,0-2.1-0.3
		c-0.6-0.2-1.2-0.5-1.9-0.9s-1.5-0.8-2.3-1.2c-0.8-0.5-1.6-0.9-2.4-1.4c-0.8-0.5-1.6-1-2.3-1.6C-147.7,400-147.7,401.3-147.7,402.5z
		 M-147.5,388.9c0,1.3-0.1,2.6-0.2,4.1c1.3-0.8,2.5-1.7,3.4-2.6c1-1,1.7-1.9,2.3-2.8c0.6-0.9,1-1.7,1.2-2.4c0.2-0.7,0.2-1.2,0-1.6
		c-0.4-0.5-1.2-0.6-2.4-0.4c-0.6,0.1-1.3,0.4-1.9,0.7c-0.6,0.3-1.4,0.8-2.1,1.3C-147.4,386.4-147.5,387.6-147.5,388.9z"/>
	<path id="XMLID_88_" class="st2" d="M-130.7,375.5c1-0.5,2.1-1,3.3-1.5c1.1-0.5,2.3-0.9,3.6-1.4c1.2-0.4,2.5-0.8,3.7-1.2
		c1.2-0.3,2,0,2.6,0.8c0.4,0.4,0.7,0.8,0.9,1.2s0.4,0.8,0.6,1.3c0.2,0.5,0.2,0.9,0.1,1.1c-0.1,0.2-0.5,0.5-1.1,0.7
		c-1.2,0.4-2.5,0.9-3.8,1.3c-1.3,0.5-2.7,1-4.1,1.5c-0.1,1-0.2,2-0.2,3.1s-0.1,2.2-0.2,3.4c0.6-0.2,1.2-0.4,1.8-0.6
		c0.6-0.2,1.3-0.4,2-0.6c0.6-0.2,1-0.2,1.4-0.2s0.7,0.3,1,0.6c0.3,0.4,0.6,0.7,0.9,1.1c0.3,0.4,0.4,0.8,0.6,1.1
		c0.3,0.4,0.4,0.8,0.3,1c-0.1,0.2-0.4,0.4-1,0.7c-1.2,0.5-2.4,1-3.7,1.5s-2.5,1-3.6,1.6c0,0.7,0,1.4,0,2c0,0.6,0,1.2-0.1,1.9
		c0.9-0.4,1.8-0.7,2.7-1c0.9-0.3,1.8-0.6,2.8-0.9c0.6-0.2,1-0.2,1.4-0.2s0.7,0.2,1,0.6s0.6,0.7,0.8,1c0.2,0.3,0.5,0.7,0.7,1
		c0.2,0.4,0.3,0.7,0.2,0.9s-0.4,0.4-0.9,0.6c-1.3,0.6-2.6,1.1-3.9,1.7c-1.3,0.6-2.6,1.1-3.8,1.7c-0.8,0.4-1.4,0.6-1.9,0.6
		s-0.9-0.1-1.2-0.2c-0.4-0.1-0.8-0.3-1.2-0.5s-0.8-0.4-1.3-0.7c-0.4-0.2-0.8-0.5-1.1-0.8s-0.5-0.8-0.6-1.4l-1.8-21.4
		C-132.6,376.4-131.7,376-130.7,375.5z"/>
	<path id="XMLID_90_" class="st2" d="M-112.7,371.3c1-0.5,2.1-1,3.3-1.5c1.1-0.5,2.3-0.9,3.6-1.4c1.2-0.4,2.5-0.8,3.7-1.2
		c1.2-0.3,2,0,2.6,0.8c0.4,0.4,0.7,0.8,0.9,1.2c0.2,0.4,0.4,0.8,0.6,1.3c0.2,0.5,0.2,0.9,0.1,1.1c-0.1,0.2-0.5,0.5-1.1,0.7
		c-1.2,0.4-2.5,0.9-3.8,1.3c-1.3,0.5-2.7,1-4.1,1.5c-0.1,1-0.2,2-0.2,3.1s-0.1,2.2-0.2,3.4c0.6-0.2,1.2-0.4,1.8-0.6
		c0.6-0.2,1.3-0.4,2-0.6c0.6-0.2,1-0.2,1.4-0.2s0.7,0.3,1,0.6c0.3,0.4,0.6,0.7,0.9,1.1c0.2,0.4,0.4,0.8,0.6,1.2
		c0.3,0.4,0.4,0.8,0.3,1c-0.1,0.2-0.4,0.4-1,0.7c-1.2,0.5-2.4,1-3.7,1.5s-2.5,1-3.6,1.6c0,0.7,0,1.4,0,2s0,1.2-0.1,1.9
		c0.9-0.4,1.8-0.7,2.7-1s1.8-0.6,2.8-0.9c0.6-0.2,1-0.2,1.4-0.2c0.4,0.1,0.7,0.2,1,0.6s0.6,0.7,0.8,1s0.5,0.7,0.7,1
		c0.2,0.4,0.3,0.7,0.2,0.9c-0.1,0.2-0.4,0.4-0.9,0.6c-1.3,0.6-2.6,1.1-3.9,1.7c-1.3,0.6-2.6,1.1-3.8,1.7c-0.8,0.4-1.4,0.6-1.9,0.6
		s-0.9-0.1-1.2-0.2c-0.4-0.1-0.8-0.3-1.2-0.5c-0.4-0.2-0.8-0.4-1.4-0.7c-0.4-0.2-0.8-0.5-1.1-0.8c-0.3-0.4-0.5-0.8-0.6-1.4
		l-1.8-21.4C-114.6,372.3-113.7,371.8-112.7,371.3z"/>
</g>
<g id="XMLID_3_">
	<path id="XMLID_92_" class="st3" d="M-248.7,424.1c-1.3,0.6-2.6,1.1-3.8,1.7c-0.4,0.2-0.8,0.4-1.1,0.5c-0.3,0.1-0.6,0.1-0.8,0.1
		c-0.2,0-0.4,0-0.6-0.1c-0.2,0-0.3-0.1-0.5-0.2c-0.4-0.1-0.8-0.3-1.1-0.5c-0.3-0.2-0.8-0.4-1.4-0.7c-0.4-0.2-0.8-0.5-1-0.8
		c-0.3-0.3-0.4-0.8-0.5-1.3c-0.1-0.8-0.2-1.8-0.4-3c-0.1-1.1-0.2-2.4-0.3-3.7c-0.1-1.3-0.2-2.7-0.2-4.2s-0.1-2.9-0.1-4.3
		c0-1.4,0-2.8,0-4.2c0-1.3,0-2.6,0.1-3.7c0.1-0.7,0.3-1.1,0.5-1.3c0.3-0.2,0.8-0.3,1.5-0.2c0.7,0,1.4,0.1,2.3,0.2
		c0.8,0.1,1.6,0.3,2.2,0.6c0.6,0.3,1,0.5,1.2,0.8c0.2,0.3,0.3,0.7,0.2,1.3c-0.1,1.3-0.2,2.8-0.3,4.4c-0.1,1.6-0.2,3.2-0.2,4.9
		c-0.1,1.7-0.1,3.3-0.1,5c0,1.7,0,3.2,0,4.8c0.9-0.4,1.8-0.7,2.6-1c0.8-0.3,1.7-0.6,2.7-0.8c0.6-0.2,1-0.2,1.4-0.2
		c0.3,0,0.7,0.2,1,0.6c0.3,0.3,0.6,0.7,0.9,1c0.2,0.3,0.4,0.7,0.6,1c0.2,0.4,0.3,0.7,0.3,0.8c0,0.2-0.4,0.4-1,0.7
		C-246.1,423-247.4,423.5-248.7,424.1z"/>
	<path id="XMLID_94_" class="st3" d="M-232.8,415.4c-1.5,0.6-2.8,1.2-3.9,1.7c-0.2,0.9-0.4,1.7-0.6,2.5c-0.2,0.8-0.3,1.5-0.4,2.3
		c-0.1,0.4-0.2,0.6-0.5,0.8c-0.2,0.1-0.6,0.1-1.1,0.1c-0.3,0-0.6-0.1-1-0.2c-0.4-0.1-0.7-0.1-1.1-0.2c-0.3-0.1-0.5-0.2-0.8-0.3
		c-0.2-0.1-0.4-0.2-0.5-0.3c-0.1-0.1-0.2-0.3-0.3-0.6c-0.1-0.3-0.1-0.6-0.1-1.1c0.2-1.5,0.4-3.4,0.8-5.5c0.4-2.1,0.8-4.3,1.2-6.6
		c0.5-2.3,0.9-4.5,1.4-6.8c0.5-2.2,1-4.2,1.5-6c0.2-0.6,0.5-1.2,0.9-1.7c0.4-0.5,1.1-0.8,2.1-0.9c0.9-0.2,1.6-0.3,2.3-0.3
		c0.7-0.1,1.3-0.1,1.9-0.1c0.6,0,1.1,0,1.6,0.1c0.5,0,1,0.1,1.5,0.1c0.7,0.1,1.2,0.3,1.4,0.6c0.3,0.3,0.4,0.8,0.5,1.4
		c0.2,1.5,0.5,3.2,0.9,5.2c0.4,1.9,0.8,3.9,1.2,6c0.4,2.1,0.9,4.2,1.4,6.3s0.9,4,1.4,5.8c0.1,0.4,0.1,0.7-0.1,0.8
		c-0.2,0.1-0.5,0.3-1,0.5c-0.5,0.1-1,0.2-1.5,0.3c-0.5,0.1-1,0.1-1.5,0c-0.5,0-0.9-0.1-1.2-0.3c-0.3-0.2-0.5-0.6-0.7-1.1
		c-0.2-0.6-0.4-1.2-0.7-1.9c-0.2-0.7-0.5-1.5-0.7-2.3C-229.8,414.3-231.3,414.9-232.8,415.4z M-232.5,409.7c0.9-0.3,1.9-0.6,2.8-0.9
		c-0.4-1.7-0.9-3.4-1.3-5.1c-0.4-1.7-0.8-3.4-1.1-5c-0.5,1.7-1,3.6-1.5,5.7s-1.1,4.2-1.6,6.4C-234.3,410.4-233.4,410-232.5,409.7z"
		/>
	<path id="XMLID_97_" class="st3" d="M-219.9,411.9c-0.4-1-0.8-2-1.1-3.3c-0.3-1.2-0.5-2.5-0.6-3.9c-0.1-1.4-0.2-2.8-0.3-4.3
		s-0.1-2.9,0-4.4c0-1.5,0.1-2.9,0.1-4.3c0-0.6,0.2-1.1,0.5-1.3c0.3-0.2,0.8-0.3,1.5-0.2c0.7,0,1.3,0.1,2,0.3
		c0.6,0.2,1.3,0.4,1.9,0.6c1.3,0.6,1.9,1.5,1.9,2.9c-0.1,1.2-0.2,2.4-0.2,3.7c-0.1,1.3-0.1,2.7-0.1,4.1c0,1.4,0,2.7,0.1,4
		c0.1,1.3,0.2,2.4,0.4,3.4c0.2,1,0.4,1.8,0.7,2.4c0.3,0.6,0.7,0.9,1.2,0.9c0.6,0,1.1-0.4,1.5-1.2c0.4-0.8,0.7-1.9,0.9-3.2
		c0.2-1.3,0.4-2.8,0.4-4.5c0.1-1.7,0.1-3.4,0.1-5.2c0-1.8,0-3.5-0.1-5.2c-0.1-1.7-0.1-3.2-0.2-4.6c-0.1-0.6,0-1.1,0.4-1.3
		c0.4-0.2,0.9-0.3,1.5-0.3s1.3,0.1,2.1,0.3c0.8,0.2,1.5,0.4,2.1,0.6c0.3,0.1,0.6,0.2,0.8,0.4c0.2,0.1,0.3,0.3,0.4,0.4
		c0.1,0.2,0.2,0.3,0.2,0.5c0,0.2,0,0.4,0,0.7c0.1,3.1,0.1,6,0,8.6c-0.1,2.6-0.2,5-0.5,7.1c-0.3,2.1-0.7,3.9-1.2,5.3
		c-0.5,1.5-1.2,2.6-2.1,3.4c-0.6,0.5-1.3,0.9-2,1.2s-1.5,0.5-2.5,0.7c-1.9,0.3-3.5,0.3-4.9-0.1c-0.6-0.2-1.2-0.4-1.7-0.7
		c-0.5-0.3-1.1-0.7-1.5-1.2C-219,413.7-219.5,412.9-219.9,411.9z"/>
	<path id="XMLID_99_" class="st3" d="M-186.9,391.2c0-2.8,0.1-5.4,0.1-7.7c0-0.6,0.2-1.1,0.5-1.3c0.3-0.2,0.8-0.3,1.5-0.3
		c0.3,0,0.6,0,0.9,0c0.3,0,0.5,0,0.8,0.1c0.3,0,0.5,0.1,0.8,0.2c0.3,0.1,0.7,0.2,1.1,0.3c0.7,0.2,1.1,0.5,1.3,0.9s0.2,0.8,0.2,1.4
		c-0.1,1.6-0.2,3.5-0.3,5.6s-0.1,4.2-0.2,6.3c0,2.1-0.1,4.2-0.1,6.2s0,3.8,0,5.3c0.1,0.8-0.5,1.2-1.7,1.2c-1,0-2,0-3.1-0.1
		c-1-0.1-1.8-0.6-2.4-1.4c-0.4-0.6-0.9-1.3-1.4-2s-1-1.6-1.6-2.5c-0.5-0.9-1.1-1.9-1.6-2.9c-0.6-1-1.1-2-1.6-3
		c0.1,1.3,0.1,2.7,0.2,4c0.1,1.3,0.1,2.6,0.2,3.9c0.1,1.2,0.1,2.4,0.2,3.4c0.1,1,0.1,2,0.2,2.7c0,0.4-0.1,0.6-0.3,0.8
		c-0.2,0.1-0.5,0.2-1.1,0.2c-0.5,0-1.1,0-1.6,0s-1.1-0.1-1.6-0.3c-0.5-0.1-0.9-0.3-1.1-0.6c-0.2-0.3-0.4-0.7-0.5-1.2
		c-0.1-0.6-0.2-1.4-0.4-2.4c-0.1-1.1-0.3-2.3-0.4-3.6c-0.1-1.4-0.3-2.8-0.4-4.4c-0.1-1.6-0.3-3.1-0.4-4.7c-0.1-1.6-0.2-3-0.3-4.5
		c-0.1-1.4-0.1-2.7-0.2-3.9c0-0.7,0.2-1.1,0.5-1.3c0.3-0.2,0.8-0.4,1.5-0.3c0.8,0.1,1.6,0.1,2.4,0.2c0.8,0.1,1.6,0.2,2.5,0.4
		c0.7,0.1,1.2,0.4,1.6,0.7c0.4,0.3,0.7,0.9,1,1.7c0.2,0.6,0.6,1.3,0.9,2.2c0.4,0.9,0.8,1.9,1.3,2.9s0.9,2.1,1.4,3.2s1,2.2,1.5,3.2
		C-186.8,396.8-186.9,394-186.9,391.2z"/>
	<path id="XMLID_101_" class="st3" d="M-177.2,380.9c1-0.6,2.1-1.2,3.2-1.7c1.2-0.5,2.4-0.8,3.6-1.1c1.3-0.2,2.5-0.3,3.8-0.1
		c1.3,0.2,2.5,0.5,3.7,1.2c1.2,0.7,2.3,1.6,3.3,2.8c0.8,1,1.5,2.1,1.9,3.4c0.5,1.3,0.7,2.7,0.7,4.2s-0.2,3-0.6,4.6
		c-0.4,1.6-1.1,3.1-2,4.6s-2.1,2.9-3.5,4.3s-3.1,2.6-5,3.6c-1,0.6-2.1,0.8-3.4,0.5c-0.6-0.2-1.2-0.3-1.7-0.5
		c-0.5-0.2-1.1-0.4-1.7-0.7c-0.3-0.1-0.5-0.3-0.7-0.4c-0.2-0.1-0.4-0.3-0.6-0.5c-0.2-0.2-0.3-0.5-0.5-0.8c-0.1-0.3-0.2-0.8-0.3-1.3
		l-2.8-20.2C-179,382.1-178.2,381.5-177.2,380.9z M-167.3,398.7c0.9-1.2,1.7-2.5,2.2-3.7s0.8-2.4,1-3.6c0.1-1.1,0.1-2.2,0-3.1
		c-0.2-1.3-0.6-2.2-1.1-2.9c-0.5-0.7-1.3-1-2.3-1.1c-1-0.1-2.2,0.2-3.4,0.9c-0.1,2.9-0.1,5.7-0.1,8.5c0.1,2.8,0.1,5.6,0.2,8.4
		C-169.4,401.1-168.2,399.9-167.3,398.7z"/>
	<path id="XMLID_104_" class="st3" d="M-147.7,397.5c0,1.2,0.1,2.4,0.1,3.6c0,0.4-0.1,0.6-0.3,0.8c-0.2,0.1-0.5,0.2-1,0.2
		c-0.6,0-1.1,0-1.6,0s-0.9,0-1.3-0.1c-0.4-0.1-0.8-0.4-1-0.6c-0.2-0.3-0.4-0.7-0.5-1.3c-0.1-0.4-0.1-1.1-0.3-1.9
		c-0.1-0.8-0.2-1.8-0.4-2.9c-0.1-1.1-0.3-2.2-0.4-3.5c-0.1-1.2-0.3-2.5-0.4-3.7c-0.1-1.2-0.2-2.5-0.3-3.6c-0.1-1.2-0.1-2.2-0.1-3.2
		s0.1-1.8,0.2-2.4c0.1-0.7,0.3-1.1,0.5-1.3c1.2-0.9,2.4-1.8,3.6-2.6c1.3-0.9,2.6-1.6,3.9-2.2c1.3-0.6,2.6-0.9,3.9-1
		c1.3-0.1,2.5,0.2,3.6,0.9c0.9,0.6,1.8,1.3,2.6,2.1s1.5,1.8,2.2,3c0.6,1.3,0.8,2.5,0.5,3.5c-0.4,1.6-1.3,3.2-2.7,4.8
		c-1.4,1.6-3.1,3.2-5.2,4.8c0.6,0.4,1.3,0.9,2,1.4s1.4,0.9,2.2,1.4c0.7,0.5,1.5,0.9,2.2,1.3s1.4,0.8,2,1.1c0.5,0.3,0.7,0.5,0.8,0.7
		c0,0.2-0.1,0.5-0.4,0.8c-0.3,0.4-0.6,0.6-0.8,0.7c-0.2,0.1-0.6,0.2-0.9,0.4c-0.4,0.2-0.9,0.4-1.5,0.5c-0.6,0.1-1.3,0-2.1-0.3
		c-0.6-0.2-1.2-0.5-1.9-0.9c-0.7-0.4-1.5-0.8-2.3-1.2c-0.8-0.5-1.6-0.9-2.4-1.4c-0.8-0.5-1.6-1-2.3-1.6
		C-147.7,395-147.7,396.3-147.7,397.5z M-147.5,383.9c0,1.3-0.1,2.6-0.2,4.1c1.3-0.8,2.5-1.7,3.4-2.6c1-1,1.7-1.9,2.3-2.8
		c0.6-0.9,1-1.7,1.2-2.4c0.2-0.7,0.2-1.2,0-1.6c-0.4-0.5-1.2-0.6-2.4-0.4c-0.6,0.1-1.3,0.4-1.9,0.7c-0.6,0.3-1.4,0.8-2.1,1.3
		C-147.4,381.4-147.5,382.6-147.5,383.9z"/>
	<path id="XMLID_107_" class="st3" d="M-130.7,370.5c1-0.5,2.1-1,3.3-1.5c1.1-0.5,2.3-0.9,3.6-1.4c1.2-0.4,2.5-0.8,3.7-1.2
		c1.2-0.3,2,0,2.6,0.8c0.4,0.4,0.7,0.8,0.9,1.2s0.4,0.8,0.6,1.3c0.2,0.5,0.2,0.9,0.1,1.1c-0.1,0.2-0.5,0.5-1.1,0.7
		c-1.2,0.4-2.5,0.9-3.8,1.3c-1.3,0.5-2.7,1-4.1,1.5c-0.1,1-0.2,2-0.2,3.1s-0.1,2.2-0.2,3.4c0.6-0.2,1.2-0.4,1.8-0.6
		c0.6-0.2,1.3-0.4,2-0.6c0.6-0.2,1-0.2,1.4-0.2s0.7,0.3,1,0.6c0.3,0.4,0.6,0.7,0.9,1.1c0.2,0.4,0.4,0.8,0.6,1.1
		c0.3,0.4,0.4,0.8,0.3,1c-0.1,0.2-0.4,0.4-1,0.7c-1.2,0.5-2.4,1-3.7,1.5s-2.5,1-3.6,1.6c0,0.7,0,1.4,0,2c0,0.6,0,1.2-0.1,1.9
		c0.9-0.4,1.8-0.7,2.7-1c0.9-0.3,1.8-0.6,2.8-0.9c0.6-0.2,1-0.2,1.4-0.2s0.7,0.2,1,0.6s0.6,0.7,0.8,1c0.2,0.3,0.5,0.7,0.7,1
		c0.2,0.4,0.3,0.7,0.2,0.9s-0.4,0.4-0.9,0.6c-1.3,0.6-2.6,1.1-3.9,1.7c-1.3,0.6-2.6,1.1-3.8,1.7c-0.8,0.4-1.4,0.6-1.9,0.6
		s-0.9-0.1-1.2-0.2c-0.4-0.1-0.8-0.3-1.2-0.5s-0.8-0.4-1.3-0.7c-0.4-0.2-0.8-0.5-1.1-0.8s-0.5-0.8-0.6-1.4l-1.8-21.4
		C-132.6,371.4-131.7,371-130.7,370.5z"/>
	<path id="XMLID_109_" class="st3" d="M-112.7,366.3c1-0.5,2.1-1,3.3-1.5c1.1-0.5,2.3-0.9,3.6-1.4c1.2-0.4,2.5-0.8,3.7-1.2
		c1.2-0.3,2,0,2.6,0.8c0.4,0.4,0.7,0.8,0.9,1.2c0.2,0.4,0.4,0.8,0.6,1.3c0.2,0.5,0.2,0.9,0.1,1.1c-0.1,0.2-0.5,0.5-1.1,0.7
		c-1.2,0.4-2.5,0.9-3.8,1.3c-1.3,0.5-2.7,1-4.1,1.5c-0.1,1-0.2,2-0.2,3.1s-0.1,2.2-0.2,3.4c0.6-0.2,1.2-0.4,1.8-0.6
		c0.6-0.2,1.3-0.4,2-0.6c0.6-0.2,1-0.2,1.4-0.2s0.7,0.3,1,0.6c0.3,0.4,0.6,0.7,0.9,1.1c0.2,0.4,0.4,0.8,0.6,1.2
		c0.3,0.4,0.4,0.8,0.3,1c-0.1,0.2-0.4,0.4-1,0.7c-1.2,0.5-2.4,1-3.7,1.5s-2.5,1-3.6,1.6c0,0.7,0,1.4,0,2s0,1.2-0.1,1.9
		c0.9-0.4,1.8-0.7,2.7-1s1.8-0.6,2.8-0.9c0.6-0.2,1-0.2,1.4-0.2c0.4,0.1,0.7,0.2,1,0.6s0.6,0.7,0.8,1s0.5,0.7,0.7,1
		c0.2,0.4,0.3,0.7,0.2,0.9c-0.1,0.2-0.4,0.4-0.9,0.6c-1.3,0.6-2.6,1.1-3.9,1.7c-1.3,0.6-2.6,1.1-3.8,1.7c-0.8,0.4-1.4,0.6-1.9,0.6
		s-0.9-0.1-1.2-0.2c-0.4-0.1-0.8-0.3-1.2-0.5c-0.4-0.2-0.8-0.4-1.4-0.7c-0.4-0.2-0.8-0.5-1.1-0.8c-0.3-0.4-0.5-0.8-0.6-1.4
		l-1.8-21.4C-114.6,367.3-113.7,366.8-112.7,366.3z"/>
</g>
<rect id="XMLID_11_" x="-103.6" y="328.1" class="st4" width="41.6" height="19.1"/>
<g id="XMLID_9_">
	<path id="XMLID_119_" class="st5" d="M-98.2,331.8h3c1.4,0,2.4,0.2,3,0.6s0.9,1,0.9,1.9c0,0.6-0.1,1.1-0.4,1.4
		c-0.3,0.4-0.6,0.6-1.1,0.7l0,0c0.6,0.1,1.1,0.4,1.3,0.8c0.2,0.4,0.4,0.9,0.4,1.5c0,0.9-0.3,1.6-1,2.1c-0.6,0.5-1.5,0.7-2.6,0.7
		h-3.6v-9.7H-98.2z M-96.1,335.6h1.2c0.6,0,1-0.1,1.2-0.3c0.2-0.2,0.4-0.5,0.4-0.9s-0.1-0.6-0.4-0.8c-0.3-0.2-0.7-0.2-1.3-0.2h-1.1
		L-96.1,335.6L-96.1,335.6z M-96.1,337.3v2.5h1.3c0.6,0,1-0.1,1.3-0.3c0.3-0.2,0.4-0.5,0.4-1c0-0.8-0.6-1.2-1.7-1.2H-96.1z"/>
	<path id="XMLID_123_" class="st5" d="M-83.5,341.5H-89v-9.7h5.6v1.7H-87v2.1h3.3v1.7H-87v2.5h3.5V341.5z"/>
	<path id="XMLID_125_" class="st5" d="M-77.7,341.5h-2.1v-8h-2.6v-1.7h7.3v1.7h-2.6L-77.7,341.5L-77.7,341.5z"/>
	<path id="XMLID_127_" class="st5" d="M-67.6,341.5l-0.7-2.3h-3.5l-0.7,2.3h-2.2l3.4-9.7h2.5l3.4,9.7
		C-65.4,341.5-67.6,341.5-67.6,341.5z M-68.8,337.5c-0.7-2.1-1-3.3-1.1-3.6s-0.1-0.5-0.2-0.7c-0.1,0.6-0.6,2-1.3,4.2h2.6V337.5z"/>
</g>
</svg>
