<?xml version="1.0" encoding="utf-8"?>
<svg version="1.1" id="Layer_1" xmlns="http://www.w3.org/2000/svg" xmlns:xlink="http://www.w3.org/1999/xlink" x="0px" y="0px"
	 viewBox="0 0 89 69.1" style="enable-background:new 0 0 89 69.1;" xml:space="preserve">
<style type="text/css">
	.st0{fill:#E5954C;}
	.st1{fill:#C67C40;}
	.st2{fill:#FCFFF7;}
</style>
<path id="XMLID_177_" class="st0" d="M45.2,0.5l8,8c0.4,0.4,1.1,0.6,1.7,0.4l12.3-3.7c1-0.3,2.1,0.4,2.2,1.5l1,9.2
	c0.1,0.8,0.7,1.4,1.4,1.5l12,1.9c1.2,0.2,1.9,1.6,1.1,2.7l-5.2,7.6c-0.5,0.8-0.4,1.8,0.4,2.3l8,6.1c1,0.8,0.9,2.4-0.3,2.9l-10.2,4.5
	c-0.8,0.3-1.2,1.2-1,2l2.5,8.6c0.3,1.1-0.5,2.2-1.7,2.2l-12.8-0.5c-0.7,0-1.3,0.4-1.6,1l-4.4,9.2c-0.4,0.9-1.5,1.2-2.4,0.8l-10.8-6
	c-0.5-0.3-1.2-0.3-1.7,0l-10.6,6.3c-0.9,0.5-2,0.2-2.4-0.7l-4.6-9.1c-0.3-0.6-1-1-1.6-0.9L11.9,59c-1.2,0.1-2.1-1-1.8-2.1l2.3-8.6
	c0.2-0.8-0.2-1.7-1-2L1.1,41.9c-1.2-0.5-1.4-2.1-0.4-2.9l7.9-6.2c0.7-0.6,0.9-1.6,0.3-2.3L3.4,23c-0.7-1-0.2-2.5,1.1-2.7l12-2.2
	c0.8-0.1,1.3-0.8,1.4-1.5l0.8-9.2c0.1-1.1,1.1-1.8,2.2-1.5l12.4,3.4c0.6,0.2,1.3,0,1.7-0.5l7.8-8.2C43.5-0.2,44.6-0.2,45.2,0.5z"/>
<g id="XMLID_40_">
	<path id="XMLID_41_" class="st1" d="M14.6,41.1c-0.6,0.1-1.1,0.2-1.6,0.3c-0.2,0.1-0.3,0.1-0.5,0.1c-0.1,0-0.2,0-0.3,0
		c-0.1,0-0.2,0-0.2-0.1c-0.1,0-0.1-0.1-0.2-0.1c-0.1-0.1-0.3-0.2-0.4-0.3c-0.1-0.1-0.3-0.2-0.5-0.4c-0.1-0.1-0.3-0.2-0.3-0.4
		c-0.1-0.1-0.1-0.3-0.1-0.5c0-0.3,0.1-0.7,0.1-1.2c0-0.5,0.1-0.9,0.2-1.5c0.1-0.5,0.2-1.1,0.2-1.6c0.1-0.6,0.2-1.1,0.3-1.7
		c0.1-0.6,0.2-1.1,0.3-1.6c0.1-0.5,0.2-1,0.3-1.4c0.1-0.2,0.2-0.4,0.3-0.4c0.1,0,0.3,0,0.6,0c0.3,0.1,0.5,0.2,0.9,0.3
		c0.3,0.1,0.6,0.2,0.8,0.4c0.2,0.2,0.4,0.3,0.4,0.4c0.1,0.1,0,0.3,0,0.5c-0.2,0.5-0.3,1.1-0.5,1.7c-0.2,0.6-0.3,1.2-0.5,1.9
		c-0.2,0.6-0.3,1.3-0.5,1.9c-0.1,0.6-0.3,1.3-0.4,1.8c0.4-0.1,0.8-0.1,1.1-0.2c0.3,0,0.7-0.1,1.1-0.1c0.2,0,0.4,0,0.5,0
		c0.1,0,0.2,0.1,0.3,0.3c0.1,0.2,0.2,0.3,0.3,0.5c0.1,0.2,0.1,0.3,0.2,0.4c0.1,0.2,0.1,0.3,0.1,0.4s-0.2,0.1-0.4,0.2
		C15.7,40.9,15.1,41,14.6,41.1z"/>
	<path id="XMLID_43_" class="st1" d="M21.4,39.1c-0.6,0.1-1.2,0.2-1.7,0.4c-0.2,0.3-0.3,0.6-0.4,0.9c-0.1,0.3-0.2,0.6-0.3,0.8
		c-0.1,0.1-0.1,0.2-0.2,0.3c-0.1,0-0.2,0-0.4-0.1c-0.1,0-0.2-0.1-0.4-0.1c-0.1-0.1-0.3-0.1-0.4-0.2c-0.1-0.1-0.2-0.1-0.3-0.2
		c-0.1,0-0.1-0.1-0.2-0.2c0-0.1-0.1-0.2-0.1-0.3c0-0.1,0-0.2,0.1-0.4c0.2-0.6,0.4-1.3,0.8-2.1c0.3-0.8,0.6-1.6,1-2.5
		c0.4-0.8,0.7-1.7,1.1-2.5c0.4-0.8,0.7-1.6,1.1-2.2c0.1-0.2,0.3-0.4,0.5-0.6c0.2-0.1,0.5-0.2,0.9-0.2c0.3,0,0.7,0,0.9,0.1
		c0.3,0,0.5,0.1,0.7,0.1c0.2,0,0.4,0.1,0.6,0.2c0.2,0.1,0.4,0.1,0.6,0.2c0.3,0.1,0.4,0.2,0.5,0.4c0.1,0.2,0.1,0.3,0.1,0.6
		c0,0.6-0.1,1.3-0.1,2.1c0,0.8,0,1.6,0,2.4c0,0.8,0,1.7,0,2.5c0,0.9,0,1.6,0.1,2.4c0,0.2,0,0.3-0.1,0.3c-0.1,0.1-0.2,0.1-0.4,0.1
		c-0.2,0-0.4,0-0.6,0c-0.2,0-0.4,0-0.6-0.1c-0.2-0.1-0.3-0.1-0.4-0.2c-0.1-0.1-0.1-0.3-0.2-0.5c0-0.2-0.1-0.5-0.1-0.8
		c0-0.3-0.1-0.6-0.1-1C22.7,38.9,22.1,39,21.4,39.1z M22,36.9c0.4-0.1,0.8-0.1,1.2-0.1c0-0.7-0.1-1.4-0.1-2.1c0-0.7,0-1.4,0-2.1
		c-0.3,0.6-0.7,1.3-1.1,2.1c-0.4,0.8-0.8,1.5-1.1,2.4C21.3,37,21.6,36.9,22,36.9z"/>
	<path id="XMLID_46_" class="st1" d="M26.7,38.7c-0.1-0.4-0.1-0.9-0.1-1.3s0-1,0.1-1.6s0.1-1.1,0.2-1.7c0.1-0.6,0.2-1.1,0.3-1.7
		c0.1-0.6,0.3-1.1,0.4-1.7c0.1-0.2,0.2-0.4,0.3-0.5c0.1-0.1,0.3,0,0.6,0c0.3,0.1,0.5,0.2,0.7,0.3c0.2,0.1,0.5,0.2,0.7,0.4
		c0.5,0.3,0.6,0.7,0.5,1.3c-0.1,0.4-0.3,0.9-0.4,1.4c-0.1,0.5-0.3,1-0.4,1.6c-0.1,0.5-0.2,1-0.3,1.5c-0.1,0.5-0.1,1-0.1,1.3
		c0,0.4,0,0.7,0.1,1c0.1,0.3,0.2,0.4,0.4,0.5c0.2,0.1,0.5-0.1,0.7-0.3c0.2-0.3,0.4-0.7,0.6-1.2c0.2-0.5,0.4-1.1,0.5-1.7
		c0.2-0.7,0.3-1.3,0.5-2c0.1-0.7,0.3-1.4,0.4-2c0.1-0.7,0.2-1.3,0.3-1.8c0-0.3,0.1-0.4,0.3-0.5c0.2-0.1,0.4-0.1,0.6,0
		c0.2,0.1,0.5,0.2,0.8,0.3s0.5,0.3,0.8,0.4c0.1,0.1,0.2,0.1,0.3,0.2c0.1,0.1,0.1,0.1,0.1,0.2c0,0.1,0,0.1,0,0.2c0,0.1,0,0.2,0,0.3
		C35.2,32.8,35,34,34.8,35c-0.2,1-0.5,1.9-0.8,2.7c-0.3,0.8-0.6,1.4-0.9,2c-0.3,0.5-0.7,0.9-1.1,1.2c-0.3,0.1-0.6,0.3-0.9,0.3
		c-0.3,0.1-0.6,0.1-1,0.1c-0.8,0-1.4-0.2-1.9-0.4c-0.2-0.1-0.4-0.2-0.6-0.4s-0.4-0.4-0.5-0.6C26.9,39.5,26.8,39.1,26.7,38.7z"/>
	<path id="XMLID_48_" class="st1" d="M41.2,33.3c0.2-1.1,0.5-2.1,0.7-3c0.1-0.2,0.2-0.4,0.3-0.5c0.1-0.1,0.3-0.1,0.6,0
		c0.1,0,0.2,0.1,0.3,0.1c0.1,0,0.2,0.1,0.3,0.1c0.1,0,0.2,0.1,0.3,0.1c0.1,0.1,0.2,0.1,0.4,0.2c0.2,0.1,0.4,0.3,0.4,0.5
		c0,0.2,0,0.3,0,0.6c-0.2,0.6-0.4,1.3-0.6,2.1c-0.2,0.8-0.4,1.6-0.6,2.4c-0.2,0.8-0.4,1.6-0.5,2.4c-0.2,0.8-0.3,1.5-0.4,2.1
		c0,0.3-0.3,0.4-0.8,0.3c-0.4-0.1-0.8-0.2-1.2-0.3c-0.4-0.1-0.6-0.4-0.8-0.7c-0.1-0.3-0.3-0.6-0.4-0.9c-0.1-0.3-0.3-0.7-0.4-1.1
		s-0.3-0.8-0.4-1.2c-0.1-0.4-0.3-0.9-0.4-1.3c-0.1,0.5-0.2,1.1-0.3,1.6c-0.1,0.5-0.2,1-0.2,1.5c-0.1,0.5-0.1,0.9-0.2,1.3
		s-0.1,0.8-0.1,1.1c0,0.1-0.1,0.2-0.2,0.3c-0.1,0-0.2,0-0.4,0c-0.2,0-0.4-0.1-0.6-0.1s-0.4-0.1-0.6-0.2c-0.2-0.1-0.3-0.2-0.4-0.3
		c-0.1-0.1-0.1-0.3-0.1-0.5c0-0.2,0-0.6,0.1-1c0-0.4,0.1-0.9,0.1-1.4s0.1-1.1,0.2-1.7s0.1-1.2,0.2-1.8c0.1-0.6,0.2-1.2,0.2-1.8
		c0.1-0.6,0.2-1.1,0.3-1.5c0.1-0.3,0.2-0.4,0.3-0.5c0.2-0.1,0.4-0.1,0.6,0c0.3,0.1,0.6,0.2,0.9,0.3c0.3,0.1,0.6,0.2,0.9,0.3
		c0.3,0.1,0.5,0.2,0.6,0.4c0.1,0.2,0.2,0.4,0.3,0.7c0,0.2,0.1,0.6,0.2,0.9c0.1,0.4,0.2,0.8,0.3,1.2c0.1,0.4,0.2,0.9,0.3,1.4
		c0.1,0.5,0.2,0.9,0.3,1.3C40.8,35.5,41,34.4,41.2,33.3z"/>
	<path id="XMLID_50_" class="st1" d="M45.8,30.1c0.4-0.2,0.9-0.3,1.4-0.4c0.5-0.1,1-0.1,1.5-0.1c0.5,0,1,0.1,1.5,0.3
		c0.5,0.2,0.9,0.4,1.3,0.8c0.4,0.3,0.8,0.8,1.1,1.4c0.2,0.5,0.4,0.9,0.5,1.5c0.1,0.5,0.1,1.1-0.1,1.7c-0.1,0.6-0.3,1.1-0.6,1.7
		c-0.3,0.6-0.7,1.1-1.2,1.6c-0.5,0.5-1,1-1.7,1.4c-0.7,0.4-1.4,0.7-2.3,1c-0.4,0.2-0.9,0.1-1.4-0.1c-0.2-0.1-0.4-0.2-0.6-0.3
		s-0.4-0.2-0.6-0.4c-0.1-0.1-0.2-0.1-0.2-0.2c-0.1-0.1-0.1-0.2-0.2-0.2c-0.1-0.1-0.1-0.2-0.1-0.3c0-0.1,0-0.3,0-0.5l0.6-8.1
		C45,30.4,45.4,30.3,45.8,30.1z M48.3,37.8c0.5-0.4,0.8-0.8,1.1-1.3c0.3-0.4,0.5-0.9,0.7-1.3c0.1-0.4,0.2-0.8,0.2-1.2
		c0-0.5,0-0.9-0.2-1.2c-0.2-0.3-0.4-0.5-0.8-0.6c-0.4-0.1-0.8-0.1-1.4,0.1c-0.3,1.1-0.5,2.2-0.7,3.3c-0.2,1.1-0.4,2.2-0.6,3.3
		C47.2,38.6,47.8,38.2,48.3,37.8z"/>
	<path id="XMLID_53_" class="st1" d="M56,39c-0.1,0.5-0.2,0.9-0.3,1.4c0,0.1-0.1,0.2-0.2,0.3c-0.1,0-0.2,0-0.4,0
		c-0.2-0.1-0.4-0.1-0.6-0.1c-0.2,0-0.3-0.1-0.5-0.2c-0.2-0.1-0.3-0.2-0.3-0.3c-0.1-0.1-0.1-0.3-0.1-0.5c0-0.2,0-0.4,0.1-0.8
		c0-0.3,0-0.7,0.1-1.1c0-0.4,0.1-0.9,0.1-1.4c0-0.5,0.1-1,0.1-1.5c0.1-0.5,0.1-1,0.2-1.4c0.1-0.5,0.1-0.9,0.2-1.2
		c0.1-0.4,0.2-0.7,0.3-0.9c0.1-0.2,0.2-0.4,0.3-0.5c0.5-0.2,1.1-0.5,1.6-0.7s1.1-0.4,1.7-0.5c0.6-0.1,1.1-0.1,1.6-0.1
		c0.5,0.1,0.9,0.3,1.3,0.6c0.3,0.3,0.6,0.7,0.8,1c0.2,0.4,0.4,0.8,0.6,1.3c0.1,0.6,0.1,1-0.1,1.4c-0.3,0.6-0.8,1.1-1.4,1.6
		c-0.7,0.5-1.5,1-2.4,1.4c0.2,0.2,0.4,0.4,0.7,0.7c0.2,0.2,0.5,0.5,0.7,0.7c0.3,0.2,0.5,0.5,0.7,0.7c0.2,0.2,0.5,0.4,0.7,0.6
		c0.2,0.1,0.3,0.3,0.2,0.3c0,0.1-0.1,0.2-0.2,0.3c-0.2,0.1-0.3,0.2-0.4,0.2c-0.1,0-0.2,0.1-0.4,0.1c-0.2,0.1-0.4,0.1-0.6,0.1
		c-0.2,0-0.5-0.1-0.8-0.3c-0.2-0.1-0.4-0.3-0.7-0.5c-0.3-0.2-0.5-0.4-0.8-0.7c-0.3-0.2-0.6-0.5-0.8-0.8c-0.3-0.3-0.5-0.5-0.8-0.8
		C56.1,38,56,38.5,56,39z M57.1,33.7c-0.1,0.5-0.2,1-0.4,1.6c0.6-0.2,1.1-0.5,1.5-0.8c0.4-0.3,0.8-0.6,1.1-0.9s0.5-0.6,0.6-0.8
		c0.1-0.3,0.2-0.5,0.1-0.6c-0.1-0.2-0.4-0.3-0.9-0.3c-0.2,0-0.5,0-0.8,0.1c-0.3,0.1-0.6,0.2-0.9,0.4C57.4,32.7,57.2,33.2,57.1,33.7z
		"/>
	<path id="XMLID_56_" class="st1" d="M64.7,29.8c0.4-0.1,0.9-0.2,1.4-0.3c0.5-0.1,1-0.2,1.5-0.3s1-0.1,1.5-0.2
		c0.5,0,0.8,0.2,0.9,0.5c0.1,0.2,0.2,0.4,0.2,0.5c0,0.2,0.1,0.3,0.1,0.5c0,0.2,0,0.4,0,0.4c-0.1,0.1-0.2,0.1-0.5,0.2
		c-0.5,0.1-1,0.1-1.6,0.2c-0.5,0.1-1.1,0.2-1.7,0.3c-0.1,0.4-0.2,0.8-0.3,1.2c-0.1,0.4-0.2,0.8-0.3,1.3c0.3,0,0.5-0.1,0.8-0.1
		c0.3,0,0.5,0,0.8-0.1c0.2,0,0.4,0,0.6,0.1c0.1,0,0.3,0.2,0.3,0.3c0.1,0.2,0.2,0.3,0.2,0.5c0.1,0.2,0.1,0.3,0.2,0.5
		c0.1,0.2,0.1,0.3,0,0.4c-0.1,0.1-0.2,0.1-0.4,0.2c-0.5,0.1-1,0.2-1.5,0.3c-0.5,0.1-1,0.2-1.5,0.3c-0.1,0.3-0.1,0.5-0.2,0.8
		c-0.1,0.2-0.1,0.5-0.2,0.7c0.4-0.1,0.8-0.1,1.1-0.2c0.4,0,0.7-0.1,1.2-0.1c0.2,0,0.4,0,0.6,0c0.1,0,0.2,0.1,0.3,0.3
		c0.1,0.2,0.2,0.3,0.2,0.5s0.1,0.3,0.2,0.4c0,0.2,0,0.3,0,0.3c0,0.1-0.2,0.1-0.4,0.2c-0.5,0.1-1.1,0.2-1.6,0.4
		c-0.6,0.1-1.1,0.2-1.6,0.3c-0.3,0.1-0.6,0.1-0.8,0.1c-0.2,0-0.3-0.1-0.5-0.2c-0.1-0.1-0.3-0.2-0.4-0.3c-0.1-0.1-0.3-0.2-0.5-0.4
		c-0.1-0.1-0.3-0.3-0.3-0.4c-0.1-0.2-0.1-0.4-0.1-0.6l1-8.5C63.9,30,64.3,29.9,64.7,29.8z"/>
	<path id="XMLID_58_" class="st1" d="M72.1,29.7c0.4-0.1,0.9-0.2,1.4-0.3c0.5-0.1,1-0.2,1.5-0.3c0.5-0.1,1-0.1,1.5-0.2
		c0.5,0,0.8,0.2,0.9,0.5c0.1,0.2,0.2,0.4,0.2,0.5s0.1,0.3,0.1,0.5c0,0.2,0,0.4,0,0.4c-0.1,0.1-0.2,0.1-0.5,0.2
		c-0.5,0.1-1,0.1-1.6,0.2c-0.5,0.1-1.1,0.2-1.7,0.3c-0.1,0.4-0.2,0.8-0.3,1.2c-0.1,0.4-0.2,0.8-0.3,1.3c0.3,0,0.5-0.1,0.8-0.1
		c0.3,0,0.5,0,0.8-0.1c0.2,0,0.4,0,0.6,0.1c0.1,0,0.3,0.2,0.3,0.3c0.1,0.2,0.2,0.3,0.2,0.5c0.1,0.2,0.1,0.3,0.2,0.5
		c0.1,0.2,0.1,0.3,0,0.4c-0.1,0.1-0.2,0.1-0.4,0.2c-0.5,0.1-1,0.2-1.5,0.3s-1,0.2-1.5,0.3c-0.1,0.3-0.1,0.5-0.2,0.8
		c-0.1,0.2-0.1,0.5-0.2,0.7c0.4-0.1,0.8-0.1,1.1-0.2c0.4,0,0.8-0.1,1.2-0.1c0.2,0,0.4,0,0.6,0c0.1,0,0.2,0.1,0.3,0.3
		c0.1,0.2,0.2,0.3,0.2,0.5c0.1,0.1,0.1,0.3,0.2,0.4c0,0.2,0,0.3,0,0.3s-0.2,0.1-0.4,0.2c-0.5,0.1-1.1,0.2-1.6,0.4
		c-0.6,0.1-1.1,0.2-1.6,0.3c-0.3,0.1-0.6,0.1-0.8,0.1c-0.2,0-0.3-0.1-0.5-0.2c-0.1-0.1-0.3-0.2-0.4-0.3c-0.1-0.1-0.3-0.2-0.5-0.4
		C70.2,39.3,70,39.2,70,39c-0.1-0.2-0.1-0.4-0.1-0.6l1-8.5C71.2,29.9,71.6,29.8,72.1,29.7z"/>
</g>
<g id="XMLID_60_">
	<path id="XMLID_61_" class="st2" d="M15,39.2c-0.6,0.1-1.1,0.2-1.6,0.3c-0.2,0.1-0.3,0.1-0.5,0.1c-0.1,0-0.2,0-0.3,0
		c-0.1,0-0.2,0-0.2-0.1c-0.1,0-0.1-0.1-0.2-0.1c-0.1-0.1-0.3-0.2-0.4-0.3c-0.1-0.1-0.3-0.2-0.5-0.4c-0.1-0.1-0.3-0.2-0.3-0.4
		c-0.1-0.1-0.1-0.3-0.1-0.5c0-0.3,0.1-0.7,0.1-1.2c0-0.5,0.1-0.9,0.2-1.5c0.1-0.5,0.2-1.1,0.2-1.6c0.1-0.6,0.2-1.1,0.3-1.7
		c0.1-0.6,0.2-1.1,0.3-1.6c0.1-0.5,0.2-1,0.3-1.4c0.1-0.2,0.2-0.4,0.3-0.4c0.1,0,0.3,0,0.6,0c0.3,0.1,0.5,0.2,0.9,0.3
		c0.3,0.1,0.6,0.2,0.8,0.4c0.2,0.2,0.4,0.3,0.4,0.4c0.1,0.1,0,0.3,0,0.5c-0.2,0.5-0.3,1.1-0.5,1.7c-0.2,0.6-0.3,1.2-0.5,1.9
		c-0.2,0.6-0.3,1.3-0.5,1.9c-0.1,0.6-0.3,1.3-0.4,1.8c0.4-0.1,0.8-0.1,1.1-0.2s0.7-0.1,1.1-0.1c0.2,0,0.4,0,0.5,0
		c0.1,0,0.2,0.1,0.3,0.3c0.1,0.2,0.2,0.3,0.3,0.5c0.1,0.2,0.1,0.3,0.2,0.4c0.1,0.2,0.1,0.3,0.1,0.4c0,0.1-0.2,0.1-0.4,0.2
		C16.1,39,15.5,39.1,15,39.2z"/>
	<path id="XMLID_63_" class="st2" d="M21.8,37.1c-0.6,0.1-1.2,0.2-1.7,0.4c-0.2,0.3-0.3,0.6-0.4,0.9c-0.1,0.3-0.2,0.6-0.3,0.8
		c-0.1,0.1-0.1,0.2-0.2,0.3c-0.1,0-0.2,0-0.4-0.1c-0.1,0-0.2-0.1-0.4-0.1c-0.1-0.1-0.3-0.1-0.4-0.2c-0.1-0.1-0.2-0.1-0.3-0.2
		c-0.1,0-0.1-0.1-0.2-0.2c0-0.1-0.1-0.2-0.1-0.3c0-0.1,0-0.2,0.1-0.4c0.2-0.6,0.4-1.3,0.7-2.1s0.6-1.6,1-2.5
		c0.4-0.8,0.7-1.7,1.1-2.5c0.4-0.8,0.7-1.6,1.1-2.2c0.1-0.2,0.3-0.4,0.5-0.6c0.2-0.1,0.5-0.2,0.9-0.2c0.3,0,0.7,0,0.9,0.1
		s0.5,0.1,0.7,0.1c0.2,0,0.4,0.1,0.6,0.2c0.2,0.1,0.4,0.1,0.6,0.2c0.3,0.1,0.4,0.2,0.5,0.4s0.1,0.3,0.1,0.6c0,0.6-0.1,1.3-0.1,2.1
		c0,0.8,0,1.6,0,2.4c0,0.8,0,1.7,0,2.5c0,0.9,0,1.6,0.1,2.4c0,0.2,0,0.3-0.1,0.3c-0.1,0.1-0.2,0.1-0.4,0.1c-0.2,0-0.4,0-0.6,0
		c-0.2,0-0.4,0-0.6-0.1c-0.2-0.1-0.3-0.1-0.4-0.2C24,39,24,38.8,23.9,38.6c0-0.2-0.1-0.5-0.1-0.8c0-0.3-0.1-0.6-0.1-1
		C23.1,36.9,22.5,37,21.8,37.1z M22.4,34.9c0.4-0.1,0.8-0.1,1.2-0.1c0-0.7-0.1-1.4-0.1-2.1c0-0.7,0-1.4,0-2.1
		c-0.3,0.6-0.7,1.3-1.1,2.1c-0.4,0.8-0.8,1.5-1.1,2.4C21.7,35,22,35,22.4,34.9z"/>
	<path id="XMLID_66_" class="st2" d="M27.1,36.8C27,36.4,27,35.9,27,35.4s0-1,0.1-1.6c0.1-0.6,0.1-1.1,0.2-1.7
		c0.1-0.6,0.2-1.1,0.3-1.7c0.1-0.6,0.3-1.1,0.4-1.7c0.1-0.2,0.2-0.4,0.3-0.5c0.1-0.1,0.3,0,0.6,0.1c0.3,0.1,0.5,0.2,0.7,0.3
		c0.2,0.1,0.5,0.2,0.7,0.4c0.5,0.3,0.6,0.7,0.5,1.3c-0.1,0.4-0.3,0.9-0.4,1.4c-0.1,0.5-0.3,1-0.4,1.6c-0.1,0.5-0.2,1-0.3,1.5
		c-0.1,0.5-0.1,1-0.1,1.3c0,0.4,0,0.7,0.1,1c0.1,0.3,0.2,0.4,0.4,0.5c0.2,0.1,0.5-0.1,0.7-0.3c0.2-0.3,0.4-0.7,0.6-1.2
		c0.2-0.5,0.4-1.1,0.5-1.7c0.2-0.7,0.3-1.3,0.5-2c0.1-0.7,0.3-1.4,0.4-2c0.1-0.7,0.2-1.3,0.3-1.8c0-0.3,0.1-0.4,0.3-0.5
		c0.2-0.1,0.4-0.1,0.6,0s0.5,0.2,0.8,0.3s0.5,0.3,0.8,0.4c0.1,0.1,0.2,0.1,0.3,0.2c0.1,0.1,0.1,0.1,0.1,0.2c0,0.1,0,0.1,0,0.2
		c0,0.1,0,0.2,0,0.3c-0.2,1.2-0.5,2.3-0.7,3.4c-0.2,1-0.5,1.9-0.8,2.7c-0.3,0.8-0.6,1.4-0.9,2c-0.3,0.5-0.7,0.9-1.1,1.2
		c-0.3,0.1-0.6,0.3-0.9,0.3c-0.3,0.1-0.6,0.1-1,0.1c-0.8,0-1.4-0.2-1.9-0.4c-0.2-0.1-0.4-0.2-0.6-0.4c-0.2-0.2-0.4-0.4-0.5-0.6
		C27.3,37.5,27.2,37.2,27.1,36.8z"/>
	<path id="XMLID_68_" class="st2" d="M41.6,31.4c0.2-1.1,0.5-2.1,0.7-3c0.1-0.2,0.2-0.4,0.3-0.5c0.1-0.1,0.3-0.1,0.6,0
		c0.1,0,0.2,0.1,0.3,0.1c0.1,0,0.2,0.1,0.3,0.1c0.1,0,0.2,0.1,0.3,0.1c0.1,0.1,0.2,0.1,0.4,0.2c0.2,0.1,0.4,0.3,0.4,0.5
		c0,0.2,0,0.3,0,0.6c-0.2,0.6-0.4,1.3-0.6,2.1c-0.2,0.8-0.4,1.6-0.6,2.4c-0.2,0.8-0.4,1.6-0.5,2.4c-0.2,0.8-0.3,1.5-0.4,2.1
		c0,0.3-0.3,0.4-0.8,0.3c-0.4-0.1-0.8-0.2-1.2-0.3c-0.4-0.1-0.6-0.4-0.8-0.7c-0.1-0.3-0.3-0.6-0.4-0.9c-0.1-0.3-0.3-0.7-0.4-1.1
		S39,35,38.9,34.6c-0.1-0.4-0.3-0.9-0.4-1.3c-0.1,0.5-0.2,1.1-0.3,1.6c-0.1,0.5-0.2,1-0.2,1.5c-0.1,0.5-0.1,0.9-0.2,1.3
		s-0.1,0.8-0.1,1.1c0,0.1-0.1,0.2-0.2,0.3c-0.1,0-0.2,0-0.4,0c-0.2,0-0.4-0.1-0.6-0.1c-0.2-0.1-0.4-0.1-0.6-0.2
		c-0.2-0.1-0.3-0.2-0.4-0.3c-0.1-0.1-0.1-0.3-0.1-0.5c0-0.2,0-0.6,0.1-1c0-0.4,0.1-0.9,0.1-1.4c0.1-0.5,0.1-1.1,0.2-1.7
		c0.1-0.6,0.1-1.2,0.2-1.8c0.1-0.6,0.2-1.2,0.2-1.8s0.2-1.1,0.3-1.5c0.1-0.3,0.2-0.4,0.3-0.5c0.2-0.1,0.4-0.1,0.6,0
		c0.3,0.1,0.6,0.2,0.9,0.3c0.3,0.1,0.6,0.2,0.9,0.3c0.3,0.1,0.5,0.2,0.6,0.4c0.1,0.2,0.2,0.4,0.3,0.7c0,0.2,0.1,0.6,0.2,0.9
		c0.1,0.4,0.2,0.8,0.3,1.2c0.1,0.4,0.2,0.9,0.3,1.4c0.1,0.5,0.2,0.9,0.3,1.3C41.2,33.6,41.4,32.5,41.6,31.4z"/>
	<path id="XMLID_70_" class="st2" d="M46.2,28.2c0.4-0.2,0.9-0.3,1.4-0.4c0.5-0.1,1-0.1,1.5-0.1c0.5,0,1,0.1,1.5,0.3
		c0.5,0.2,0.9,0.4,1.3,0.8c0.4,0.3,0.8,0.8,1.1,1.4c0.2,0.5,0.4,0.9,0.5,1.5c0.1,0.5,0.1,1.1-0.1,1.7c-0.1,0.6-0.3,1.1-0.6,1.7
		c-0.3,0.6-0.7,1.1-1.2,1.6c-0.5,0.5-1,1-1.7,1.4c-0.7,0.4-1.4,0.7-2.3,1c-0.4,0.2-0.9,0.1-1.4-0.1c-0.2-0.1-0.4-0.2-0.6-0.3
		s-0.4-0.2-0.6-0.4c-0.1-0.1-0.2-0.1-0.2-0.2c-0.1-0.1-0.1-0.2-0.2-0.2c-0.1-0.1-0.1-0.2-0.1-0.3c0-0.1,0-0.3,0-0.5l0.6-8.1
		C45.4,28.5,45.8,28.3,46.2,28.2z M48.7,35.9c0.5-0.4,0.8-0.8,1.1-1.3c0.3-0.4,0.5-0.9,0.7-1.3c0.1-0.4,0.2-0.8,0.2-1.2
		c0-0.5,0-0.9-0.2-1.2c-0.2-0.3-0.4-0.5-0.8-0.6c-0.4-0.1-0.8-0.1-1.4,0.1c-0.3,1.1-0.5,2.2-0.7,3.3c-0.2,1.1-0.4,2.2-0.6,3.3
		C47.6,36.6,48.2,36.3,48.7,35.9z"/>
	<path id="XMLID_73_" class="st2" d="M56.4,37c-0.1,0.5-0.2,0.9-0.3,1.4c0,0.1-0.1,0.2-0.2,0.3c-0.1,0-0.2,0-0.4,0
		c-0.2-0.1-0.4-0.1-0.6-0.1s-0.3-0.1-0.5-0.2c-0.2-0.1-0.3-0.2-0.3-0.3C54,37.9,54,37.8,54,37.6c0-0.2,0-0.4,0.1-0.8
		c0-0.3,0-0.7,0.1-1.2c0-0.4,0.1-0.9,0.1-1.4c0-0.5,0.1-1,0.1-1.5c0.1-0.5,0.1-1,0.2-1.4c0.1-0.5,0.1-0.9,0.2-1.2
		c0.1-0.4,0.2-0.7,0.3-0.9c0.1-0.2,0.2-0.4,0.3-0.5c0.5-0.2,1.1-0.5,1.6-0.7c0.6-0.2,1.1-0.4,1.7-0.5c0.6-0.1,1.1-0.1,1.6-0.1
		c0.5,0.1,0.9,0.3,1.3,0.6c0.3,0.3,0.6,0.7,0.8,1c0.2,0.4,0.4,0.8,0.6,1.3c0.1,0.6,0.1,1-0.1,1.4c-0.3,0.6-0.8,1.1-1.4,1.6
		s-1.5,1-2.4,1.4c0.2,0.2,0.4,0.4,0.7,0.7c0.2,0.2,0.5,0.5,0.7,0.7c0.2,0.2,0.5,0.5,0.7,0.7s0.5,0.4,0.7,0.6
		c0.2,0.1,0.3,0.3,0.2,0.3c0,0.1-0.1,0.2-0.2,0.3c-0.2,0.1-0.3,0.2-0.4,0.2c-0.1,0-0.2,0.1-0.4,0.1c-0.2,0.1-0.4,0.1-0.6,0.1
		c-0.2,0-0.5-0.1-0.8-0.3c-0.2-0.1-0.4-0.3-0.7-0.5c-0.3-0.2-0.5-0.4-0.8-0.7c-0.3-0.2-0.6-0.5-0.8-0.8c-0.3-0.3-0.5-0.5-0.8-0.8
		C56.5,36,56.4,36.5,56.4,37z M57.5,31.7c-0.1,0.5-0.2,1-0.4,1.6c0.6-0.2,1.1-0.5,1.5-0.8c0.4-0.3,0.8-0.6,1.1-0.9
		c0.3-0.3,0.5-0.6,0.6-0.8c0.1-0.3,0.2-0.5,0.1-0.6c-0.1-0.2-0.4-0.3-0.9-0.3c-0.2,0-0.5,0-0.8,0.1s-0.6,0.2-0.9,0.4
		C57.8,30.8,57.6,31.2,57.5,31.7z"/>
	<path id="XMLID_76_" class="st2" d="M65.2,27.9c0.4-0.1,0.9-0.2,1.4-0.3c0.5-0.1,1-0.2,1.5-0.3s1-0.1,1.5-0.2
		c0.5,0,0.8,0.2,0.9,0.5c0.1,0.2,0.2,0.4,0.2,0.5c0,0.2,0.1,0.3,0.1,0.5c0,0.2,0,0.4,0,0.4c-0.1,0.1-0.2,0.1-0.5,0.2
		c-0.5,0.1-1,0.1-1.6,0.2c-0.5,0.1-1.1,0.2-1.7,0.3c-0.1,0.4-0.2,0.8-0.3,1.2c-0.1,0.4-0.2,0.8-0.3,1.3c0.3,0,0.5-0.1,0.8-0.1
		c0.3,0,0.5,0,0.8-0.1c0.2,0,0.4,0,0.6,0.1c0.1,0,0.3,0.2,0.3,0.3c0.1,0.2,0.2,0.3,0.2,0.5s0.1,0.3,0.2,0.5c0.1,0.2,0.1,0.3,0,0.4
		c-0.1,0.1-0.2,0.1-0.4,0.2c-0.5,0.1-1,0.2-1.5,0.3c-0.5,0.1-1,0.2-1.5,0.3c-0.1,0.3-0.1,0.5-0.2,0.8s-0.1,0.5-0.2,0.7
		c0.4-0.1,0.8-0.1,1.1-0.2c0.4,0,0.7-0.1,1.2-0.1c0.2,0,0.4,0,0.6,0c0.1,0,0.2,0.1,0.3,0.3c0.1,0.2,0.2,0.3,0.2,0.5
		c0.1,0.1,0.1,0.3,0.2,0.4c0,0.2,0,0.3,0,0.3c0,0.1-0.2,0.1-0.4,0.2c-0.5,0.1-1.1,0.2-1.6,0.4c-0.6,0.1-1.1,0.2-1.6,0.3
		c-0.3,0.1-0.6,0.1-0.8,0.1c-0.2,0-0.3-0.1-0.5-0.2c-0.1-0.1-0.3-0.2-0.4-0.3c-0.1-0.1-0.3-0.2-0.5-0.4c-0.1-0.1-0.3-0.3-0.3-0.4
		c-0.1-0.2-0.1-0.4-0.1-0.6l1-8.5C64.3,28.1,64.7,28,65.2,27.9z"/>
	<path id="XMLID_78_" class="st2" d="M72.5,27.7c0.4-0.1,0.9-0.2,1.4-0.3c0.5-0.1,1-0.2,1.5-0.3c0.5-0.1,1-0.1,1.5-0.2
		c0.5,0,0.8,0.2,0.9,0.5c0.1,0.2,0.2,0.4,0.2,0.5c0,0.2,0.1,0.3,0.1,0.5c0,0.2,0,0.4,0,0.4c-0.1,0.1-0.2,0.1-0.5,0.2
		c-0.5,0.1-1,0.1-1.6,0.2c-0.5,0.1-1.1,0.2-1.7,0.3c-0.1,0.4-0.2,0.8-0.3,1.2c-0.1,0.4-0.2,0.8-0.3,1.3c0.3,0,0.5-0.1,0.8-0.1
		c0.3,0,0.5,0,0.8-0.1c0.2,0,0.4,0,0.6,0.1c0.1,0,0.3,0.2,0.3,0.3c0.1,0.2,0.2,0.3,0.2,0.5c0.1,0.2,0.1,0.3,0.2,0.5
		c0.1,0.2,0.1,0.3,0,0.4c-0.1,0.1-0.2,0.1-0.4,0.2c-0.5,0.1-1,0.2-1.5,0.3s-1,0.2-1.5,0.3c-0.1,0.3-0.1,0.5-0.2,0.8
		s-0.1,0.5-0.2,0.7c0.4-0.1,0.8-0.1,1.1-0.2c0.4,0,0.8-0.1,1.2-0.1c0.2,0,0.4,0,0.6,0c0.1,0,0.2,0.1,0.3,0.3
		c0.1,0.2,0.2,0.3,0.2,0.5c0.1,0.1,0.1,0.3,0.2,0.4c0,0.2,0,0.3,0,0.3c0,0.1-0.2,0.1-0.4,0.2c-0.5,0.1-1.1,0.2-1.6,0.4
		c-0.6,0.1-1.1,0.2-1.6,0.3c-0.3,0.1-0.6,0.1-0.8,0.1c-0.2,0-0.3-0.1-0.5-0.2c-0.1-0.1-0.3-0.2-0.4-0.3c-0.1-0.1-0.3-0.2-0.5-0.4
		c-0.1-0.1-0.3-0.3-0.3-0.4c-0.1-0.2-0.1-0.4-0.1-0.6l1-8.5C71.6,27.9,72,27.8,72.5,27.7z"/>
</g>
</svg>
