<?xml version="1.0" encoding="utf-8"?>
<!-- Generator: Adobe Illustrator 19.0.0, SVG Export Plug-In . SVG Version: 6.00 Build 0)  -->
<svg version="1.1" id="Layer_1" xmlns="http://www.w3.org/2000/svg" xmlns:xlink="http://www.w3.org/1999/xlink" x="0px" y="0px"
	 viewBox="0 0 28.6 44.1" style="enable-background:new 0 0 28.6 44.1;" xml:space="preserve">
<style type="text/css">
	.st0{fill:#FFFFFF;}
</style>
<path id="XMLID_150_" class="st0" d="M12.3,39.1c-1.1,2.4-3.2,4.4-6.2,4.4c-3.9,0-6.1-2.9-6.1-6.1C0,33.6,3.2,31,6.7,31
	c0.6,0,1.3,0.1,1.9,0.3C7.3,26.2,3.8,22,3.8,15.4C3.8,7.8,9.4,0,17.9,0c5.3,0,8.8,3.4,8.8,8c0,6.9-6.7,12.4-11.9,12.4
	c-1.6,0-3-1.1-3-3.4c0-0.5,0.2-0.8,0.5-0.8c0.2,0,0.5,0.4,1.1,0.4c3.9,0,8.6-4.3,8.6-7.8c0-2.3-1.4-4.2-4.3-4.2
	c-5.4,0-9.1,5.2-9.1,11c0,6.1,4.7,11.4,4.8,18.6c2.5,2.4,4.7,5.3,7.1,5.3c3.3,0,4.2-3.3,4.2-5.4c0-0.5-0.1-0.8-0.1-1.1
	c0-0.3,0.2-0.4,0.7-0.4c2.1,0,3.2,1.2,3.2,2.7c0,4.6-3.1,8.9-7.6,8.9C17.5,44.1,14.8,41.5,12.3,39.1z M4.2,37.2
	c0,1.1,0.7,2.2,2.1,2.2c1.6,0,2.5-1.6,2.8-3.3C8.1,35.5,7.3,35,6.3,35C5.1,35,4.2,35.9,4.2,37.2z"/>
</svg>
