<?xml version="1.0" encoding="utf-8"?>
<!-- Generator: Adobe Illustrator 19.0.0, SVG Export Plug-In . SVG Version: 6.00 Build 0)  -->
<svg version="1.1" id="Layer_1" xmlns="http://www.w3.org/2000/svg" xmlns:xlink="http://www.w3.org/1999/xlink" x="0px" y="0px"
	 viewBox="0 0 184 105.7" style="enable-background:new 0 0 184 105.7;" xml:space="preserve">
<style type="text/css">
	.st0{display:none;}
	.st1{display:inline;fill:#4C3C0F;}
	.st2{clip-path:url(#XMLID_213_);fill:#92E8EA;}
	.st3{fill:#608DA8;}
	.st4{fill:#AF7519;}
	.st5{fill:#FFFFFF;}
	.st6{fill:#EFA73F;}
</style>
<g id="XMLID_75_" class="st0">
	<path id="XMLID_76_" class="st1" d="M169.8,86.5c0.3,0,0.5,0.1,0.6,0.2c0.2,0.2,0.3,0.4,0.3,0.7c0,0.3-0.1,0.6-0.3,0.8
		c-0.2,0.2-0.5,0.3-0.7,0.3s-0.5-0.1-0.7-0.2c-0.2-0.2-0.3-0.4-0.3-0.7c0-0.3,0.1-0.6,0.3-0.7C169.3,86.6,169.5,86.5,169.8,86.5z"/>
	<path id="XMLID_78_" class="st1" d="M173,88.5c-0.3,0-0.5-0.1-0.6-0.3c-0.2-0.2-0.2-0.4-0.2-0.7c0-0.3,0.1-0.7,0.2-1.2
		c0.2-0.5,0.3-1,0.5-1.4c0.2-0.4,0.2-0.7,0.2-0.8c0-0.1,0-0.2-0.1-0.2c-0.2,0-0.6,0.4-1.1,1.3l-0.7-0.4c1-1.6,1.8-2.4,2.6-2.4
		c0.5,0,0.8,0.3,0.8,1c0,0.2-0.1,0.5-0.2,1l-0.7,2c-0.1,0.2-0.1,0.4-0.1,0.5c0,0.2,0.1,0.2,0.2,0.2c0.2,0,0.6-0.4,1.2-1.2l0.4,0.4
		c-0.4,0.7-0.8,1.2-1.3,1.6S173.2,88.5,173,88.5z M175.7,79.5c0,0.3-0.1,0.5-0.3,0.7s-0.4,0.3-0.7,0.3s-0.5-0.1-0.7-0.3
		c-0.1-0.2-0.2-0.4-0.2-0.7s0.1-0.5,0.3-0.7c0.2-0.2,0.4-0.3,0.7-0.3s0.5,0.1,0.7,0.3S175.7,79.3,175.7,79.5z"/>
	<path id="XMLID_81_" class="st1" d="M175.9,86c0-0.5,0.1-1,0.4-1.4c0.2-0.5,0.5-0.8,0.9-1.1c0.8-0.7,1.7-1,2.5-1s1.6,0.2,2.1,0.7
		c0.6,0.5,0.8,1,0.8,1.7s-0.2,1.3-0.6,1.9c-0.4,0.6-0.9,1-1.5,1.3c-0.6,0.3-1.3,0.5-2,0.5s-1.4-0.2-1.9-0.7
		C176.2,87.3,175.9,86.7,175.9,86z M179.1,87.8c0.3,0,0.6-0.1,0.8-0.3s0.5-0.4,0.6-0.8c0.3-0.6,0.4-1.2,0.4-1.9
		c0-0.6-0.1-1.1-0.4-1.5c-0.2-0.3-0.6-0.5-1-0.5s-0.9,0.3-1.3,0.8c-0.4,0.6-0.6,1.3-0.6,2.1C177.7,87.2,178.2,87.8,179.1,87.8z"/>
</g>
<g id="XMLID_96_">
	<g id="XMLID_123_">
		<defs>
			<circle id="XMLID_124_" cx="92" cy="35.3" r="29.8"/>
		</defs>
		<clipPath id="XMLID_213_">
			<use xlink:href="#XMLID_124_"  style="overflow:visible;"/>
		</clipPath>
		<path id="XMLID_125_" class="st2" d="M62.2,35.1c2.7-0.9,5.9,0.7,8.7,1.2c4.6,0.9,5-1.8,11.3-2.1c6.1-0.3,6.4,2.3,12.7,2.1
			c6-0.2,6.1-2.5,11.2-2c4.2,0.4,5.4,2.1,9.8,1.8c3.6-0.2,4.6-1.5,5.9-0.8c2.8,1.5,2.6,9.9-0.2,16.2c-4.4,10.1-16.7,17.8-29.6,17.6
			c0,0-16.7-0.2-28.2-16.2c0,0-4.8-6.7-4.6-13.9c0-0.4,0-1.6,0.8-2.6C60.8,35.6,61.8,35.3,62.2,35.1z"/>
	</g>
	<path id="XMLID_126_" class="st3" d="M92,0C72.5,0,56.7,15.8,56.7,35.3S72.5,70.5,92,70.5s35.3-15.8,35.3-35.3S111.5,0,92,0z
		 M92,64.2c-16,0-28.9-12.9-28.9-28.9S76,6.4,92,6.4s28.9,12.9,28.9,28.9S108,64.2,92,64.2z"/>
	<rect id="XMLID_106_" x="58.5" y="27.3" class="st3" width="10.9" height="15.9"/>
</g>
<g id="XMLID_54_">
	<path id="XMLID_55_" class="st4" d="M12.3,100.8c-1.1,2.4-3.2,4.4-6.2,4.4c-3.9,0-6.1-2.9-6.1-6.1c0-3.8,3.2-6.5,6.7-6.5
		c0.6,0,1.3,0.1,1.9,0.3C7.3,87.8,3.8,83.6,3.8,77c0-7.6,5.6-15.4,14-15.4c5.3,0,8.8,3.4,8.8,8c0,6.9-6.7,12.4-11.9,12.4
		c-1.6,0-3-1.1-3-3.4c0-0.5,0.2-0.8,0.5-0.8c0.2,0,0.5,0.4,1.1,0.4c3.9,0,8.6-4.3,8.6-7.8c0-2.3-1.4-4.2-4.3-4.2
		c-5.4,0-9.1,5.2-9.1,11c0,6.1,4.7,11.4,4.8,18.6c2.5,2.4,4.7,5.3,7.1,5.3c3.3,0,4.2-3.3,4.2-5.4c0-0.5-0.1-0.8-0.1-1.1
		c0-0.3,0.2-0.4,0.7-0.4c2.1,0,3.2,1.2,3.2,2.7c0,4.6-3.1,8.9-7.6,8.9C17.5,105.7,14.8,103.2,12.3,100.8z M4.2,98.9
		c0,1.1,0.7,2.2,2.1,2.2c1.6,0,2.5-1.6,2.8-3.3c-0.9-0.6-1.8-1.1-2.7-1.1C5.1,96.7,4.2,97.6,4.2,98.9z"/>
	<path id="XMLID_58_" class="st4" d="M51.4,94.9c0.2-1.2,0.8-1.8,1.4-1.8c0.9,0,2.1,1.3,2.1,2.4c0,0.1,0,0.2-0.1,0.4
		c-1,3.9-3.4,9.2-8.4,9.2c-2.1,0-3.7-1-4.5-2.4c-1.2,1.4-2.8,2.4-5.1,2.4c-4.6,0-7-3.9-7-8.9c0-9.9,6.8-15.9,14-15.9
		c1.6,0,2.7,0.9,2.7,2.5c0,1-0.2,1.4-0.8,1.4c-0.5,0-1.1-0.1-1.7-0.1c-4.5,0-9.7,3.8-9.7,12.3c0,3.1,1.3,4.8,3.4,4.8
		c1.6,0,2.7-1.4,3.3-3.1v-9.1c0-1.1-0.2-1.5-0.2-1.9c0-0.6,0.7-1,1.5-1c1.9,0,3.2,1.2,3.2,2.6v9.7c0,1.3,0.6,2.7,2,2.7
		C49.8,101.3,50.9,97.5,51.4,94.9z"/>
	<path id="XMLID_60_" class="st4" d="M63,101c-1.4,2.5-3.3,4.2-5.9,4.2c-4,0-6.3-3.4-6.3-8.5c0-6.3,2.1-13.3,2.1-13.3
		c0.4-1,0-2.2,3.1-2.2c2.9,0,1.2,2.4,0.9,3.2c-1.1,4.4-1.7,7-1.7,11.9c0,3.2,1,4.9,2.7,4.9c2.4,0,4.1-3.8,4.8-8v-9.5
		c0-1.7-0.6-1.8-0.6-2.2s1.1-0.6,1.9-0.6c1.9,0,3.2,1.2,3.2,2.6v15c0,0.5,0,2.7,1.5,2.7c2.4,0,3.4-3.8,4-6.4
		c0.2-1.2,0.8-1.8,1.4-1.8c0.9,0,2.1,1.3,2.1,2.4c0,0.1,0,0.2-0.1,0.4c-1.1,3.9-3.4,9.2-8.4,9.2C65.2,105.2,63.4,103.4,63,101z"/>
	<path id="XMLID_62_" class="st4" d="M73.1,83.9c0-1.1-0.2-1.5-0.2-1.9c0-0.6,0.7-1,1.5-1c1.9,0,3.2,1.2,3.2,2.6v2.7
		c1.6-3.3,3.7-5.8,6.6-5.8c4,0,4.9,3.2,4.9,6v12.2c0,0.5,0,2.7,1.5,2.7c2.4,0,3.4-3.8,4-6.4c0.2-1.2,0.8-1.8,1.4-1.8
		c0.9,0,2.1,1.3,2.1,2.4c0,0.1,0,0.2-0.1,0.4c-1,3.9-3.4,9.2-8.4,9.2c-3.1,0-5-2.5-5-5.5v-12c0-1.8-0.1-3.4-1.2-3.4
		c-1.7,0-5.4,5.1-5.8,9.7v8.6c0,1.1,0.1,2.5-1.7,2.5c-1.2,0-2.8-0.4-2.8-2.6V83.9z"/>
	<path id="XMLID_64_" class="st4" d="M93.4,95.7c0-9,5.5-14.3,11.9-15.2V67.2c0-1.7-0.6-1.8-0.6-2.2s1.1-0.6,1.9-0.6
		c1.9,0,3.2,1.2,3.2,2.6v31.7c0,1.3,0.6,2.7,2,2.7c2.4,0,3.4-3.8,4-6.4c0.2-1.2,0.8-1.8,1.4-1.8c0.9,0,2.1,1.3,2.1,2.4
		c0,0.1,0,0.2-0.1,0.4c-1,3.9-3.4,9.2-8.4,9.2c-2,0-3.6-0.9-4.5-2.3c-1.3,1.3-3,2.3-5.3,2.3C96.4,105.2,93.4,101.9,93.4,95.7z
		 M105.3,99V84.4c-3.8,0.7-7.4,3.5-7.4,10.9c0,4.2,1.9,6,4,6C103.4,101.3,104.5,100.3,105.3,99z"/>
	<path id="XMLID_67_" class="st4" d="M122.8,98.5c0-3.8,1.1-8,3-13h-4.5h-0.6c-0.1,2.3-0.4,7.4-1.5,10.9c-0.8,2.5-3.8,0.4-3.3-1.7
		c0.6-2.4,0.9-7.3,0.9-10.3c-1.5-0.8-2.5-2.1-2.5-3.8c0-1.7,1.4-2.7,3-2.7c1.4,0,3.1,0.7,3.7,3.1c1.9,0.2,2.5,0.2,3.1,0.2h3.1
		c0.7,0,3.1,1.9,2.8,3.3c0,0.7-2.7,7.7-2.7,13.6c0,1.7,0.8,3.2,2.4,3.2c2.7,0,3.7-3.8,4.2-6.4c0.2-1.2,0.8-1.8,1.4-1.8
		c0.9,0,2.1,1.3,2.1,2.4c0,0.2-0.1,0.3-0.1,0.4c-1.1,3.9-3.4,9.2-8.4,9.2C126.1,105.2,122.8,103.7,122.8,98.5z"/>
	<path id="XMLID_69_" class="st4" d="M138.9,97.6c0.8,2,2.4,3.7,5.5,3.7c4.6,0,6.5-3.8,7.2-7.4c0.5-2.7,3.8-1.5,3.6,0.6
		c-0.4,3.6-2.8,10.7-11.4,10.7c-5.4,0-10.4-4.3-10.4-11.7c0-7.5,4.5-13.1,9-13.1c3.3,0,5.3,2.4,5.3,6
		C147.7,90.7,144.7,95.9,138.9,97.6z M138.2,94.4c3-1.4,4.8-4.4,4.8-8c0-1.3-0.5-2.1-1.2-2.1c-2.9,0-3.8,6.5-3.7,9
		C138.2,93.7,138.2,94,138.2,94.4z"/>
	<path id="XMLID_72_" class="st4" d="M156.5,97.6c0.8,2,2.4,3.7,5.5,3.7c4.6,0,6.5-3.8,7.2-7.4c0.5-2.7,3.8-1.5,3.6,0.6
		c-0.4,3.6-2.8,10.7-11.4,10.7c-5.4,0-10.4-4.3-10.4-11.7c0-7.5,4.5-13.1,9-13.1c3.3,0,5.3,2.4,5.3,6
		C165.2,90.7,162.2,95.9,156.5,97.6z M155.8,94.4c3-1.4,4.8-4.4,4.8-8c0-1.3-0.5-2.1-1.2-2.1c-2.9,0-3.8,6.5-3.7,9
		C155.7,93.7,155.8,94,155.8,94.4z"/>
</g>
<g id="XMLID_153_">
	<path id="XMLID_160_" class="st5" d="M171,84.5c0.3,0,0.5,0.1,0.6,0.2c0.2,0.2,0.3,0.4,0.3,0.7c0,0.3-0.1,0.6-0.3,0.8
		c-0.2,0.2-0.5,0.3-0.7,0.3s-0.5-0.1-0.7-0.2c-0.2-0.2-0.3-0.4-0.3-0.7c0-0.3,0.1-0.6,0.3-0.7C170.5,84.6,170.8,84.5,171,84.5z"/>
	<path id="XMLID_157_" class="st5" d="M174.2,86.5c-0.3,0-0.5-0.1-0.6-0.3c-0.2-0.2-0.2-0.4-0.2-0.7c0-0.3,0.1-0.7,0.2-1.2
		c0.2-0.5,0.3-1,0.5-1.4c0.2-0.4,0.2-0.7,0.2-0.8c0-0.1,0-0.2-0.1-0.2c-0.2,0-0.6,0.4-1.1,1.3l-0.7-0.4c1-1.6,1.8-2.4,2.6-2.4
		c0.5,0,0.8,0.3,0.8,1c0,0.2-0.1,0.5-0.2,1l-0.7,2c-0.1,0.2-0.1,0.4-0.1,0.5c0,0.2,0.1,0.2,0.2,0.2c0.2,0,0.6-0.4,1.2-1.2l0.4,0.4
		c-0.4,0.7-0.8,1.2-1.3,1.6S174.5,86.5,174.2,86.5z M177,77.5c0,0.3-0.1,0.5-0.3,0.7s-0.4,0.3-0.7,0.3s-0.5-0.1-0.7-0.3
		c-0.1-0.2-0.2-0.4-0.2-0.7s0.1-0.5,0.3-0.7c0.2-0.2,0.4-0.3,0.7-0.3s0.5,0.1,0.7,0.3S177,77.3,177,77.5z"/>
	<path id="XMLID_154_" class="st5" d="M177.2,84c0-0.5,0.1-1,0.4-1.4c0.2-0.5,0.5-0.8,0.9-1.1c0.8-0.7,1.7-1,2.5-1s1.6,0.2,2.1,0.7
		c0.6,0.5,0.8,1,0.8,1.7s-0.2,1.3-0.6,1.9c-0.4,0.6-0.9,1-1.5,1.3c-0.6,0.3-1.3,0.5-2,0.5s-1.4-0.2-1.9-0.7
		C177.5,85.3,177.2,84.7,177.2,84z M180.4,85.8c0.3,0,0.6-0.1,0.8-0.3s0.5-0.4,0.6-0.8c0.3-0.6,0.4-1.2,0.4-1.9
		c0-0.6-0.1-1.1-0.4-1.5c-0.2-0.3-0.6-0.5-1-0.5s-0.9,0.3-1.3,0.8c-0.4,0.6-0.6,1.3-0.6,2.1C179,85.2,179.5,85.8,180.4,85.8z"/>
</g>
<g id="XMLID_130_">
	<path id="XMLID_150_" class="st6" d="M12.3,98.8c-1.1,2.4-3.2,4.4-6.2,4.4c-3.9,0-6.1-2.9-6.1-6.1c0-3.8,3.2-6.5,6.7-6.5
		c0.6,0,1.3,0.1,1.9,0.3C7.3,85.8,3.8,81.6,3.8,75c0-7.6,5.6-15.4,14-15.4c5.3,0,8.8,3.4,8.8,8c0,6.9-6.7,12.4-11.9,12.4
		c-1.6,0-3-1.1-3-3.4c0-0.5,0.2-0.8,0.5-0.8c0.2,0,0.5,0.4,1.1,0.4c3.9,0,8.6-4.3,8.6-7.8c0-2.3-1.4-4.2-4.3-4.2
		c-5.4,0-9.1,5.2-9.1,11c0,6.1,4.7,11.4,4.8,18.6c2.5,2.4,4.7,5.3,7.1,5.3c3.3,0,4.2-3.3,4.2-5.4c0-0.5-0.1-0.8-0.1-1.1
		c0-0.3,0.2-0.4,0.7-0.4c2.1,0,3.2,1.2,3.2,2.7c0,4.6-3.1,8.9-7.6,8.9C17.5,103.7,14.8,101.2,12.3,98.8z M4.2,96.9
		c0,1.1,0.7,2.2,2.1,2.2c1.6,0,2.5-1.6,2.8-3.3c-0.9-0.6-1.8-1.1-2.7-1.1C5.1,94.7,4.2,95.6,4.2,96.9z"/>
	<path id="XMLID_148_" class="st6" d="M51.4,92.9c0.2-1.2,0.8-1.8,1.4-1.8c0.9,0,2.1,1.3,2.1,2.4c0,0.1,0,0.2-0.1,0.4
		c-1,3.9-3.4,9.2-8.4,9.2c-2.1,0-3.7-1-4.5-2.4c-1.2,1.4-2.8,2.4-5.1,2.4c-4.6,0-7-3.9-7-8.9c0-9.9,6.8-15.9,14-15.9
		c1.6,0,2.7,0.9,2.7,2.5c0,1-0.2,1.4-0.8,1.4c-0.5,0-1.1-0.1-1.7-0.1c-4.5,0-9.7,3.8-9.7,12.3c0,3.1,1.3,4.8,3.4,4.8
		c1.6,0,2.7-1.4,3.3-3.1v-9.1c0-1.1-0.2-1.5-0.2-1.9c0-0.6,0.7-1,1.5-1c1.9,0,3.2,1.2,3.2,2.6v9.7c0,1.3,0.6,2.7,2,2.7
		C49.8,99.3,50.9,95.5,51.4,92.9z"/>
	<path id="XMLID_146_" class="st6" d="M63,99c-1.4,2.5-3.3,4.2-5.9,4.2c-4,0-6.3-3.4-6.3-8.5c0-6.3,2.1-13.3,2.1-13.3
		c0.4-1,0-2.2,3.1-2.2c2.9,0,1.2,2.4,0.9,3.2c-1.1,4.4-1.7,7-1.7,11.9c0,3.2,1,4.9,2.7,4.9c2.4,0,4.1-3.8,4.8-8v-9.5
		c0-1.7-0.6-1.8-0.6-2.2s1.1-0.6,1.9-0.6c1.9,0,3.2,1.2,3.2,2.6v15c0,0.5,0,2.7,1.5,2.7c2.4,0,3.4-3.8,4-6.4
		c0.2-1.2,0.8-1.8,1.4-1.8c0.9,0,2.1,1.3,2.1,2.4c0,0.1,0,0.2-0.1,0.4c-1.1,3.9-3.4,9.2-8.4,9.2C65.2,103.2,63.4,101.4,63,99z"/>
	<path id="XMLID_144_" class="st6" d="M73.1,81.9c0-1.1-0.2-1.5-0.2-1.9c0-0.6,0.7-1,1.5-1c1.9,0,3.2,1.2,3.2,2.6v2.7
		c1.6-3.3,3.7-5.8,6.6-5.8c4,0,4.9,3.2,4.9,6v12.2c0,0.5,0,2.7,1.5,2.7c2.4,0,3.4-3.8,4-6.4c0.2-1.2,0.8-1.8,1.4-1.8
		c0.9,0,2.1,1.3,2.1,2.4c0,0.1,0,0.2-0.1,0.4c-1,3.9-3.4,9.2-8.4,9.2c-3.1,0-5-2.5-5-5.5v-12c0-1.8-0.1-3.4-1.2-3.4
		c-1.7,0-5.4,5.1-5.8,9.7v8.6c0,1.1,0.1,2.5-1.7,2.5c-1.2,0-2.8-0.4-2.8-2.6V81.9z"/>
	<path id="XMLID_141_" class="st6" d="M93.4,93.7c0-9,5.5-14.3,11.9-15.2V65.2c0-1.7-0.6-1.8-0.6-2.2s1.1-0.6,1.9-0.6
		c1.9,0,3.2,1.2,3.2,2.6v31.7c0,1.3,0.6,2.7,2,2.7c2.4,0,3.4-3.8,4-6.4c0.2-1.2,0.8-1.8,1.4-1.8c0.9,0,2.1,1.3,2.1,2.4
		c0,0.1,0,0.2-0.1,0.4c-1,3.9-3.4,9.2-8.4,9.2c-2,0-3.6-0.9-4.5-2.3c-1.3,1.3-3,2.3-5.3,2.3C96.4,103.2,93.4,99.9,93.4,93.7z
		 M105.3,97V82.4c-3.8,0.7-7.4,3.5-7.4,10.9c0,4.2,1.9,6,4,6C103.4,99.3,104.5,98.3,105.3,97z"/>
	<path id="XMLID_139_" class="st6" d="M122.8,96.5c0-3.8,1.1-8,3-13h-4.5h-0.6c-0.1,2.3-0.4,7.4-1.5,10.9c-0.8,2.5-3.8,0.4-3.3-1.7
		c0.6-2.4,0.9-7.3,0.9-10.3c-1.5-0.8-2.5-2.1-2.5-3.8c0-1.7,1.4-2.7,3-2.7c1.4,0,3.1,0.7,3.7,3.1c1.9,0.2,2.5,0.2,3.1,0.2h3.1
		c0.7,0,3.1,1.9,2.8,3.3c0,0.7-2.7,7.7-2.7,13.6c0,1.7,0.8,3.2,2.4,3.2c2.7,0,3.7-3.8,4.2-6.4c0.2-1.2,0.8-1.8,1.4-1.8
		c0.9,0,2.1,1.3,2.1,2.4c0,0.2-0.1,0.3-0.1,0.4c-1.1,3.9-3.4,9.2-8.4,9.2C126.1,103.2,122.8,101.7,122.8,96.5z"/>
	<path id="XMLID_136_" class="st6" d="M138.9,95.6c0.8,2,2.4,3.7,5.5,3.7c4.6,0,6.5-3.8,7.2-7.4c0.5-2.7,3.8-1.5,3.6,0.6
		c-0.4,3.6-2.8,10.7-11.4,10.7c-5.4,0-10.4-4.3-10.4-11.7c0-7.5,4.5-13.1,9-13.1c3.3,0,5.3,2.4,5.3,6
		C147.7,88.7,144.7,93.9,138.9,95.6z M138.2,92.4c3-1.4,4.8-4.4,4.8-8c0-1.3-0.5-2.1-1.2-2.1c-2.9,0-3.8,6.5-3.7,9
		C138.2,91.7,138.2,92,138.2,92.4z"/>
	<path id="XMLID_131_" class="st6" d="M156.5,95.6c0.8,2,2.4,3.7,5.5,3.7c4.6,0,6.5-3.8,7.2-7.4c0.5-2.7,3.8-1.5,3.6,0.6
		c-0.4,3.6-2.8,10.7-11.4,10.7c-5.4,0-10.4-4.3-10.4-11.7c0-7.5,4.5-13.1,9-13.1c3.3,0,5.3,2.4,5.3,6
		C165.2,88.7,162.2,93.9,156.5,95.6z M155.8,92.4c3-1.4,4.8-4.4,4.8-8c0-1.3-0.5-2.1-1.2-2.1c-2.9,0-3.8,6.5-3.7,9
		C155.7,91.7,155.8,92,155.8,92.4z"/>
</g>
</svg>
