<?xml version="1.0" encoding="utf-8"?>
<!-- Generator: Adobe Illustrator 19.0.0, SVG Export Plug-In . SVG Version: 6.00 Build 0)  -->
<svg version="1.1" id="Layer_1" xmlns="http://www.w3.org/2000/svg" xmlns:xlink="http://www.w3.org/1999/xlink" x="0px" y="0px"
	 viewBox="0 0 122.3 89.1" style="enable-background:new 0 0 122.3 89.1;" xml:space="preserve">
<style type="text/css">
	.st0{fill:#4388A3;}
</style>
<g id="XMLID_43_">
	<g id="XMLID_41_">
		<path id="XMLID_62_" class="st0" d="M45.8,89.1c29-0.2,32.5-17,32.5-17C50.8,62.7,45.8,89.1,45.8,89.1L45.8,89.1z M45.8,89.1"/>
		<path id="XMLID_58_" class="st0" d="M86.1,0l-8.9,16.8l-0.1,0l0.1-0.1l0,0c0,0-13.9,25.6-25.1,33.3c-11.1,7.7-38.2,9.6-38.2,9.6
			c10.9,15.2,3.4,29.9,3.4,29.9l23.1-0.7l2.9-8.6c0,0,10-21.6,37-12.4L111,28.6l0.1,0l-0.1,0.1l0.1,0l11.2-16.4L86.1,0z M110.2,25.1
			l-28.5-9.8l5-9.8l29.8,10.2L110.2,25.1z M110.2,25.1"/>
		<path id="XMLID_55_" class="st0" d="M9.3,62.3C7.4,61.8-0.6,62.4,0,72.6C1.4,81,4.5,86.9,13,88.9C16.6,70.5,10.3,61.6,9.3,62.3
			L9.3,62.3z M9.3,62.3"/>
	</g>
</g>
</svg>
