<svg xmlns="http://www.w3.org/2000/svg" viewBox="0 0 480 480">
    <path d="M132.9,163.7c24.5-15.5,18.6-31.6,18.6-31.6-28.3,6.6-18.6,31.6-18.6,31.6h0Z" fill="#dd8c4e"/>
    <path d="M119.9,66.8l1.3,19h-0.1s1.8,29.1-3.7,41.5-27.3,28.4-27.3,28.4a30,30,0,0,1,18.7,23.6l19.2-12.8-2.1-8.8s-3-23.6,24.8-30.1l5.3-49.5h0.1l0.8-19.8Zm33.7,8.5-29.4,6.8-0.9-11L154,64Z"
          fill="#dd8c4e"/>
    <path d="M87.7,160.3c-1.9.6-8.3,5.3-2.4,13.7,5.6,6.4,11.4,9.7,19.7,6.9-6.7-17.5-16.7-21.7-17.2-20.6h0Z"
          fill="#dd8c4e"/>
    <path d="M372.9,403.7c24.5-15.5,18.6-31.6,18.6-31.6-28.3,6.6-18.6,31.6-18.6,31.6h0Z" fill="#dd8c4e"/>
    <path d="M359.9,306.8l1.3,19h-0.1s1.8,29.1-3.7,41.5-27.3,28.4-27.3,28.4a30,30,0,0,1,18.7,23.6l19.2-12.8-2.1-8.8s-3-23.6,24.8-30.1l5.3-49.5h0.1l0.8-19.8Zm33.7,8.5-29.4,6.8-0.9-11L394,304Z"
          fill="#dd8c4e"/>
    <path d="M327.7,400.3c-1.9.6-8.3,5.3-2.4,13.7,5.6,6.4,11.4,9.7,19.7,6.9-6.7-17.5-16.7-21.7-17.2-20.6h0Z"
          fill="#dd8c4e"/>
    <path d="M327.2,149.6c26.4,11.9,36.6-1.9,36.6-1.9-21.1-20-36.6,1.9-36.6,1.9h0Z" fill="#dd8c4e"/>
    <path d="M401,85.5L385.9,97.1h0s-23.3,17.5-36.7,19.8-38.7-7.2-38.7-7.2a30,30,0,0,1-9.4,28.6l21.3,9,6.2-6.6s18.1-15.5,38.8,4.2l44.3-22.8h0l17-10.2Zm11.4,32.9L390.6,97.6l8.6-6.8,22.8,21.7Z"
          fill="#dd8c4e"/>
    <path d="M305.2,110.1c-1.5-1.2-9-4-12.8,5.5s-1.9,14.9,5,20.2c11-15.2,8.9-25.9,7.7-25.7h0Z" fill="#dd8c4e"/>
    <path d="M87.2,389.6c26.4,11.9,36.6-1.9,36.6-1.9-21.1-20-36.6,1.9-36.6,1.9h0Z" fill="#dd8c4e"/>
    <path d="M161,325.5l-15.1,11.6h0s-23.3,17.5-36.7,19.8-38.7-7.2-38.7-7.2a30,30,0,0,1-9.4,28.6l21.3,9,6.2-6.6s18.1-15.5,38.8,4.2l44.3-22.8h0l17-10.2Zm11.4,32.9-21.8-20.8,8.6-6.8,22.8,21.7Z"
          fill="#dd8c4e"/>
    <path d="M65.2,350.1c-1.5-1.2-9-4-12.8,5.5s-1.9,14.9,5,20.2c11-15.2,8.9-25.9,7.7-25.7h0Z" fill="#dd8c4e"/>
</svg>
