<?xml version="1.0" encoding="utf-8"?>
<svg version="1.1" id="Layer_1" xmlns="http://www.w3.org/2000/svg" xmlns:xlink="http://www.w3.org/1999/xlink" x="0px" y="0px"
	 viewBox="0 0 128.9 153" style="enable-background:new 0 0 128.9 153;" xml:space="preserve">
<style type="text/css">
	.st0{fill:#E55564;}
	.st1{fill:#DD7E58;}
</style>
<g id="XMLID_105_">
	<path id="XMLID_120_" class="st0" d="M16,22.4c0,2.1-1.7,3.8-3.8,3.8c-2.1,0-3.8-1.7-3.8-3.8c0-2.1,1.7-3.8,3.8-3.8
		C14.3,18.6,16,20.3,16,22.4L16,22.4z M16,22.4"/>
	<path id="XMLID_117_" class="st0" d="M28,22.4c0,2.1-1.7,3.8-3.8,3.8c-2.1,0-3.8-1.7-3.8-3.8c0-2.1,1.7-3.8,3.8-3.8
		C26.3,18.6,28,20.3,28,22.4L28,22.4z M28,22.4"/>
	<path id="XMLID_114_" class="st0" d="M96.4,22.4c0,2.1-1.7,3.8-3.8,3.8c-2.1,0-3.8-1.7-3.8-3.8c0-2.1,1.7-3.8,3.8-3.8
		C94.7,18.6,96.4,20.3,96.4,22.4L96.4,22.4z M96.4,22.4"/>
	<path id="XMLID_111_" class="st0" d="M108.4,22.4c0,2.1-1.7,3.8-3.8,3.8c-2.1,0-3.8-1.7-3.8-3.8c0-2.1,1.7-3.8,3.8-3.8
		C106.7,18.6,108.4,20.3,108.4,22.4L108.4,22.4z M108.4,22.4"/>
	<path id="XMLID_108_" class="st0" d="M120.5,22.4c0,2.1-1.7,3.8-3.8,3.8c-2.1,0-3.8-1.7-3.8-3.8c0-2.1,1.7-3.8,3.8-3.8
		C118.8,18.6,120.5,20.3,120.5,22.4L120.5,22.4z M120.5,22.4"/>
	<path id="XMLID_94_" class="st0" d="M0,153h128.9V29.9H0V153z M64.5,50.7c22.5,0,40.8,18.3,40.8,40.8c0,22.5-18.3,40.8-40.8,40.8
		s-40.8-18.3-40.8-40.8C23.7,69,42,50.7,64.5,50.7L64.5,50.7z M64.5,50.7"/>
	<rect id="XMLID_93_" class="st0" width="128.9" height="13.2"/>
</g>
<g id="XMLID_103_">
	<path id="XMLID_104_" class="st1" d="M73.5,62.3v9.6c7,3.5,12.3,10.9,12.3,19.4c0,11.9-9.5,21.6-21.5,21.6
		c-11.9,0-21.7-9.7-21.7-21.6c0-8.9,4.9-16.5,12.9-19.8V62c-13,3.7-21.7,15.4-21.7,29.2c0,16.8,13.7,30.5,30.6,30.5
		s30.2-13.7,30.2-30.5C94.6,77.8,85.5,66.3,73.5,62.3z"/>
	<rect id="XMLID_50_" x="60.9" y="55.9" class="st1" width="6.9" height="34.5"/>
</g>
</svg>
