<?xml version="1.0" encoding="utf-8"?>
<!-- Generator: Adobe Illustrator 19.0.0, SVG Export Plug-In . SVG Version: 6.00 Build 0)  -->
<svg version="1.1" id="Layer_1" xmlns="http://www.w3.org/2000/svg" xmlns:xlink="http://www.w3.org/1999/xlink" x="0px" y="0px"
	 viewBox="0 0 277.9 277.9" style="enable-background:new 0 0 277.9 277.9;" xml:space="preserve">
<style type="text/css">
	.st0{fill:#E55564;}
	.st1{display:none;}
	.st2{display:inline;fill:#EA2D48;}
	.st3{display:inline;fill:#FFFFFF;}
	.st4{fill:#EA2D48;}
	.st5{fill:#FFFFFF;}
</style>
<g id="XMLID_13_">
	<path id="XMLID_26_" class="st0" d="M233,277.9H44.9C20.2,277.9,0,257.7,0,233V44.9C0,20.2,20.2,0,44.9,0H233
		c24.7,0,44.9,20.2,44.9,44.9V233C277.9,257.7,257.7,277.9,233,277.9z"/>
	<g id="XMLID_2_" class="st1">
		<path id="XMLID_3_" class="st2" d="M144.6,215.5l-0.2,0.8c0,2.5,1.9,4.7,5.6,6.6c3.7,1.9,7.4,3,11.2,3.2l-0.7,6.3H95.1l0.7-6.3
			c4.1,0,7.8-0.9,11.2-2.7c4.8-2.7,7.7-5.4,8.6-7.9H144.6z M140.4,232.4h-29.1l2.9-11.2c16.7-68.1,25.6-104.1,26.7-108
			c-2.3,1.5-10.7,5.5-25.4,12.2l-5.9-8.3c13.6-6.3,24.5-12,32.5-17.2c8-5.1,13.6-8.6,16.9-10.6h14L140.4,232.4z"/>
	</g>
	<g id="XMLID_6_" class="st1">
		<path id="XMLID_7_" class="st3" d="M143.9,197.3l-0.2,0.8c0,2.5,1.9,4.7,5.6,6.6c3.7,1.9,7.4,3,11.2,3.2l-0.7,6.3H94.3l0.7-6.3
			c4.1,0,7.8-0.9,11.2-2.7c4.8-2.7,7.7-5.4,8.6-7.9H143.9z M139.6,214.2h-29.1l2.9-11.2C130.1,135,139,99,140.2,95
			c-2.3,1.5-10.7,5.5-25.4,12.2l-5.9-8.3c13.6-6.3,24.5-12,32.5-17.2c8-5.1,13.6-8.6,16.9-10.6h14L139.6,214.2z"/>
	</g>
</g>
<g id="XMLID_10_">
	<path id="XMLID_12_" class="st4" d="M96.5,131.8l-10-4.9c4.7-11.3,11.9-20.5,21.5-27.6c9.6-7.2,20.3-10.7,32-10.7
		c14.1,0,25.9,4.2,35.3,12.5c7.1,6.2,10.7,14.4,10.7,24.4c0,8.1-1.2,14.4-3.7,19s-4.5,8.3-6.2,11.1c-1.7,2.8-4.1,5.7-7.1,8.9
		c-3.1,3.1-5.7,5.7-7.8,7.9s-5.2,4.8-9.2,7.9c-4,3.1-7,5.5-9.1,7.1c-5.4,4-11.8,8.8-19.4,14.1c4.7-0.1,10.8-0.2,18.3-0.2
		c7.5,0,16.9,0.6,28.3,1.8c3.3-1.9,6-5,8.3-9.5c2.2-4.5,4-8.1,5.2-11l2-4.3l6.6,1l-17.2,51.4c-2.7-0.3-7.9-1-15.6-2.1
		c-17.1-2.4-31.1-3.6-42.2-3.6c-11,0-21.6,1.4-31.7,4.1l-4.4-8l6.4-3.9c14.3-8.9,26.5-18.3,36.6-28.4C142.6,169.9,152,153,152,138
		c0-9.3-2.1-16.7-6.2-22.1c-4.2-5.5-9.7-8.2-16.5-8.2c-6.8,0-13.2,2.2-19.1,6.5C104.2,118.5,99.7,124.4,96.5,131.8z"/>
</g>
<g id="XMLID_11_">
	<path id="XMLID_15_" class="st5" d="M96.5,114.9l-10-4.9c4.7-11.3,11.9-20.5,21.5-27.6c9.6-7.2,20.3-10.7,32-10.7
		c14.1,0,25.9,4.2,35.3,12.5c7.1,6.2,10.7,14.4,10.7,24.4c0,8.1-1.2,14.4-3.7,19c-2.5,4.6-4.5,8.3-6.2,11.1
		c-1.7,2.8-4.1,5.7-7.1,8.9c-3.1,3.1-5.7,5.7-7.8,7.9s-5.2,4.8-9.2,7.9c-4,3.1-7,5.5-9.1,7.1c-5.4,4-11.8,8.8-19.4,14.1
		c4.7-0.1,10.8-0.2,18.3-0.2c7.5,0,16.9,0.6,28.3,1.8c3.3-1.9,6-5,8.3-9.5c2.2-4.5,4-8.1,5.2-11l2-4.3l6.6,1l-17.2,51.4
		c-2.7-0.3-7.9-1-15.6-2.1c-17.1-2.4-31.1-3.6-42.2-3.6c-11,0-21.6,1.4-31.7,4.1l-4.4-8l6.4-3.9c14.3-8.9,26.5-18.3,36.6-28.4
		c18.7-18.7,28.1-35.5,28.1-50.5c0-9.3-2.1-16.7-6.2-22.1c-4.2-5.5-9.7-8.2-16.5-8.2c-6.8,0-13.2,2.2-19.1,6.5
		C104.2,101.6,99.7,107.5,96.5,114.9z"/>
</g>
</svg>
