<?xml version="1.0" encoding="utf-8"?>
<!-- Generator: Adobe Illustrator 19.0.0, SVG Export Plug-In . SVG Version: 6.00 Build 0)  -->
<svg version="1.1" id="Layer_1" xmlns="http://www.w3.org/2000/svg" xmlns:xlink="http://www.w3.org/1999/xlink" x="0px" y="0px"
	 viewBox="0 0 277.9 277.9" style="enable-background:new 0 0 277.9 277.9;" xml:space="preserve">
<style type="text/css">
	.st0{fill:#E55564;}
	.st1{fill:#EA2D48;}
	.st2{fill:#FFFFFF;}
</style>
<g id="XMLID_13_">
	<path id="XMLID_26_" class="st0" d="M233,277.9H44.9C20.2,277.9,0,257.7,0,233V44.9C0,20.2,20.2,0,44.9,0H233
		c24.7,0,44.9,20.2,44.9,44.9V233C277.9,257.7,257.7,277.9,233,277.9z"/>
	<g id="XMLID_1_">
		<path id="XMLID_2_" class="st1" d="M144.6,215.5l-0.2,0.8c0,2.5,1.9,4.7,5.6,6.6c3.7,1.9,7.4,3,11.2,3.2l-0.7,6.3H95.1l0.7-6.3
			c4.1,0,7.8-0.9,11.2-2.7c4.8-2.7,7.7-5.4,8.6-7.9H144.6z M140.4,232.4h-29.1l2.9-11.2c16.7-68.1,25.6-104.1,26.7-108
			c-2.3,1.5-10.7,5.5-25.4,12.2l-5.9-8.3c13.6-6.3,24.5-12,32.5-17.2c8-5.1,13.6-8.6,16.9-10.6h14L140.4,232.4z"/>
	</g>
	<g id="XMLID_5_">
		<path id="XMLID_6_" class="st2" d="M143.9,197.3l-0.2,0.8c0,2.5,1.9,4.7,5.6,6.6c3.7,1.9,7.4,3,11.2,3.2l-0.7,6.3H94.3l0.7-6.3
			c4.1,0,7.8-0.9,11.2-2.7c4.8-2.7,7.7-5.4,8.6-7.9H143.9z M139.6,214.2h-29.1l2.9-11.2C130.1,135,139,99,140.2,95
			c-2.3,1.5-10.7,5.5-25.4,12.2l-5.9-8.3c13.6-6.3,24.5-12,32.5-17.2c8-5.1,13.6-8.6,16.9-10.6h14L139.6,214.2z"/>
	</g>
</g>
</svg>
