<?xml version="1.0" encoding="utf-8"?>
<!-- Generator: Adobe Illustrator 19.0.0, SVG Export Plug-In . SVG Version: 6.00 Build 0)  -->
<svg version="1.1" id="Layer_1" xmlns="http://www.w3.org/2000/svg" xmlns:xlink="http://www.w3.org/1999/xlink" x="0px" y="0px"
	 viewBox="0 0 277.9 277.9" style="enable-background:new 0 0 277.9 277.9;" xml:space="preserve">
<style type="text/css">
	.st0{fill:#E55564;}
	.st1{display:none;}
	.st2{display:inline;fill:#EA2D48;}
	.st3{display:inline;fill:#FFFFFF;}
	.st4{fill:#EA2D48;}
	.st5{fill:#FFFFFF;}
</style>
<g id="XMLID_13_">
	<path id="XMLID_26_" class="st0" d="M233,277.9H44.9C20.2,277.9,0,257.7,0,233V44.9C0,20.2,20.2,0,44.9,0H233
		c24.7,0,44.9,20.2,44.9,44.9V233C277.9,257.7,257.7,277.9,233,277.9z"/>
	<g id="XMLID_2_" class="st1">
		<path id="XMLID_3_" class="st2" d="M144.6,215.5l-0.2,0.8c0,2.5,1.9,4.7,5.6,6.6c3.7,1.9,7.4,3,11.2,3.2l-0.7,6.3H95.1l0.7-6.3
			c4.1,0,7.8-0.9,11.2-2.7c4.8-2.7,7.7-5.4,8.6-7.9H144.6z M140.4,232.4h-29.1l2.9-11.2c16.7-68.1,25.6-104.1,26.7-108
			c-2.3,1.5-10.7,5.5-25.4,12.2l-5.9-8.3c13.6-6.3,24.5-12,32.5-17.2c8-5.1,13.6-8.6,16.9-10.6h14L140.4,232.4z"/>
	</g>
	<g id="XMLID_6_" class="st1">
		<path id="XMLID_7_" class="st3" d="M143.9,197.3l-0.2,0.8c0,2.5,1.9,4.7,5.6,6.6c3.7,1.9,7.4,3,11.2,3.2l-0.7,6.3H94.3l0.7-6.3
			c4.1,0,7.8-0.9,11.2-2.7c4.8-2.7,7.7-5.4,8.6-7.9H143.9z M139.6,214.2h-29.1l2.9-11.2C130.1,135,139,99,140.2,95
			c-2.3,1.5-10.7,5.5-25.4,12.2l-5.9-8.3c13.6-6.3,24.5-12,32.5-17.2c8-5.1,13.6-8.6,16.9-10.6h14L139.6,214.2z"/>
	</g>
</g>
<g id="XMLID_10_">
	<path id="XMLID_12_" class="st4" d="M164.8,119.5c0-7.9-5.8-11.8-17.4-11.8c-6.9,0-13.5,2.4-19.9,7.1c-6.3,4.8-11.1,10.4-14.3,17
		l-9.7-4.9c6.2-11.6,14.3-20.9,24.3-27.9c10-7,20.3-10.5,31.1-10.5c10.8,0,19.6,2.3,26.4,7c6.8,4.7,10.3,11.4,10.3,20.2
		c0,8.8-3,16.5-9,23c-6,6.5-13.5,10.9-22.5,13.2c7.5,1.3,13.5,4.6,17.9,9.8c4.4,5.2,6.6,11.7,6.6,19.5c0,7.8-2,15.1-6,21.8
		c-4,6.7-9.2,12.2-15.5,16.3c-13.2,8.6-27.8,13-43.6,13c-9.5,0-17.4-1.7-23.8-5.1c-11.6-6-17.4-14.3-17.4-24.9
		c0-5.4,1.8-9.7,5.3-13.1c3.6-3.4,7.4-5.1,11.6-5.1c4.2,0,7.3,1.1,9.4,3.3c2.1,2.2,3.1,4.8,3.1,7.9c0,7.8-5,11.6-15.1,11.6
		c3.8,9.1,11.6,13.6,23.3,13.6c8.6,0,16.5-3.1,23.6-9.2c7.1-6.1,10.7-13.3,10.7-21.5s-2.6-14.4-7.9-18.5c-5.2-4.2-11.8-6.2-19.7-6.2
		l-9.5,0.5l5.7-15.4c13.9,0,25.5-4.7,34.8-14.1C162.4,131.1,164.8,125.6,164.8,119.5z"/>
</g>
<g id="XMLID_11_">
	<path id="XMLID_15_" class="st5" d="M164.8,102.6c0-7.9-5.8-11.8-17.4-11.8c-6.9,0-13.5,2.4-19.9,7.1c-6.3,4.8-11.1,10.4-14.3,17
		l-9.7-4.9c6.2-11.6,14.3-20.9,24.3-27.9c10-7,20.3-10.5,31.1-10.5c10.8,0,19.6,2.3,26.4,7c6.8,4.7,10.3,11.4,10.3,20.2
		c0,8.8-3,16.5-9,23c-6,6.5-13.5,10.9-22.5,13.2c7.5,1.3,13.5,4.6,17.9,9.8c4.4,5.2,6.6,11.7,6.6,19.5c0,7.8-2,15.1-6,21.8
		c-4,6.7-9.2,12.2-15.5,16.3c-13.2,8.6-27.8,13-43.6,13c-9.5,0-17.4-1.7-23.8-5.1c-11.6-6-17.4-14.3-17.4-24.9
		c0-5.4,1.8-9.7,5.3-13.1c3.6-3.4,7.4-5.1,11.6-5.1c4.2,0,7.3,1.1,9.4,3.3c2.1,2.2,3.1,4.8,3.1,7.9c0,7.8-5,11.6-15.1,11.6
		c3.8,9.1,11.6,13.6,23.3,13.6c8.6,0,16.5-3.1,23.6-9.2c7.1-6.1,10.7-13.3,10.7-21.5s-2.6-14.4-7.9-18.5c-5.2-4.2-11.8-6.2-19.7-6.2
		l-9.5,0.5l5.7-15.4c13.9,0,25.5-4.7,34.8-14.1C162.4,114.2,164.8,108.7,164.8,102.6z"/>
</g>
</svg>
