<?xml version="1.0" encoding="utf-8"?>
<!-- Generator: Adobe Illustrator 19.0.0, SVG Export Plug-In . SVG Version: 6.00 Build 0)  -->
<svg version="1.1" id="Layer_1" xmlns="http://www.w3.org/2000/svg" xmlns:xlink="http://www.w3.org/1999/xlink" x="0px" y="0px"
	 viewBox="0 0 258 220.3" style="enable-background:new 0 0 258 220.3;" xml:space="preserve">
<style type="text/css">
	.st0{fill:#4388A3;}
</style>
<path id="XMLID_129_" class="st0" d="M255.4,68.3l-55.6-42l-29.1-6.1c-3.7-0.8-6,0.7-6.8,4.4c-1.2,5.6-5.3,9.7-12.5,12.3
	c-7.2,2.6-14,3.2-20.6,1.9c-6.5-1.4-12.5-4.6-17.8-9.8c-5.3-5.2-7.4-10.6-6.3-16.2c0.8-3.7-0.7-6-4.4-6.8L73.2,0L4.8,16.8
	c-2,0.4-3.4,1.4-4.2,3.2c-0.7,1.4-0.8,2.9-0.4,4.6l21.3,52.4c1,2.9,2.8,4.1,5.7,3.5l23.6-0.9L28.2,188.2c-0.8,3.7,0.7,6,4.4,6.8
	l120.5,25.1c4.1,0.9,6.6-0.6,7.3-4.3L183.1,107l23.5,10.7c0.7,0.5,1.6,0.9,2.7,1.1c2.6,0.5,4.7,0,6.2-1.6l40.4-39.5
	c1.5-1.6,2.2-3.2,2.2-4.8C258,71,257.1,69.4,255.4,68.3z M94.1,103.1c-0.8-0.3-1.4-0.6-1.9-0.9c-0.5-0.4-0.9-0.7-1.2-1.1
	c-0.3-0.4-0.5-0.9-0.7-1.4c-0.1-0.5-0.2-1.1-0.2-1.7c0-0.5,0.1-1,0.1-1.4c0.2-0.8,0.2-1.5,0.3-2.1c0-0.6-0.2-1.1-0.7-1.4
	c-0.5-0.2-1.1,0-1.9,0.5c-0.8,0.6-1.6,1.4-2.5,2.4c-0.9,1-1.7,2.2-2.6,3.4c-0.8,1.3-1.5,2.4-2.1,3.6c-0.5,1.2-1,2.3-1.3,3.5
	s-0.6,2.3-0.7,3.3c-0.1,1-0.1,1.9,0,2.6s0.5,1.2,1,1.4c0.9,0.5,2.5-0.1,4.9-1.8c1.7-1.2,3.6-1.3,5.8-0.2c0.9,0.4,1.3,0.9,1.2,1.4
	c-0.1,0.5-0.3,1.1-0.9,1.8c-0.6,0.8-1.3,1.5-2.1,2.1c-0.8,0.6-1.6,1.1-2.4,1.5c-0.4,0.2-0.8,0.3-1.3,0.4c-0.5,0.1-1,0.2-1.6,0.2
	c-0.5,0-1.1,0-1.7,0c-0.6,0-1.1-0.1-1.7-0.3c-1.1-0.3-2.1-0.6-3-1.1c-0.9-0.4-1.7-0.8-2.3-1.2c-0.6-0.4-1.2-0.9-1.8-1.5
	c-0.6-0.6-1-1.3-1.2-2c-0.5-1.2-0.7-2.5-0.7-3.9c0-1.5,0.2-3,0.5-4.6c0.3-1.6,0.9-3.2,1.6-4.9c0.7-1.6,1.5-3.2,2.5-4.7
	c1-1.5,2.1-2.9,3.3-4.2c1.2-1.3,2.6-2.4,4-3.2c1.2-0.7,2.3-1.1,3.4-1.2c1.1-0.1,2.1,0,3,0.2c0.7,0.2,1.4,0.4,2,0.7
	c0.7,0.3,1.4,0.6,2,1c0.6,0.4,1.2,0.8,1.8,1.2c0.6,0.4,1,0.8,1.5,1.2c0.4,0.5,0.7,0.9,1,1.3c0.2,0.4,0.4,0.9,0.5,1.3
	c0.1,0.4,0.2,0.9,0.2,1.3s0,0.9-0.1,1.4c-0.1,0.6-0.2,1.1-0.3,1.7c-0.1,0.6-0.3,1.2-0.5,1.8c-0.2,0.6-0.4,1.1-0.6,1.7
	c-0.2,0.5-0.4,1-0.7,1.4c-0.1,0.2-0.2,0.4-0.3,0.5c-0.1,0.2-0.2,0.3-0.4,0.3c-0.2,0.1-0.3,0.1-0.6,0.1
	C94.8,103.3,94.5,103.3,94.1,103.1z M119.7,111.9c-0.2,0.1-0.6,0.2-1.1,0.1c-1.4-0.2-2.8-0.4-4.3-0.6c-1.4-0.2-2.9-0.4-4.4-0.5
	c-0.6,1.2-1.1,2.4-1.5,3.5c-0.4,1.1-0.8,2.1-1.2,3c-0.2,0.5-0.4,0.7-0.6,0.8s-0.5-0.1-1-0.4c-0.4-0.3-0.8-0.5-1.2-0.8
	c-0.4-0.3-0.8-0.6-1.3-1c-0.8-0.6-1.1-1.3-0.8-2.1c0.1-0.5,0.3-1,0.4-1.6s0.4-1.3,0.6-2c-0.6,0-1.3-0.1-1.9-0.1c-0.6,0-1.2,0-1.8,0
	c-0.3,0-0.5,0-0.7,0c-0.2,0-0.4-0.1-0.6-0.2c-0.2-0.1-0.3-0.2-0.5-0.3c-0.2-0.2-0.3-0.3-0.5-0.6c-0.3-0.5-0.6-1-1-1.7
	s-0.6-1.3-0.7-1.8c-0.2-0.5-0.1-0.8,0.3-1c0.4-0.2,0.8-0.2,1.2-0.2c1.1,0,2.3,0,3.7,0.1c1.4,0.1,2.9,0.2,4.5,0.4
	c0.6-1.3,1.1-2.5,1.6-3.6c0.5-1.1,1-2.1,1.5-3c0.2-0.4,0.6-0.7,1-0.8c0.4-0.2,0.8-0.1,1.3,0.2c0.6,0.4,1.2,0.8,1.7,1.3
	c0.6,0.5,1,1,1.3,1.4c0.4,0.5,0.6,0.9,0.6,1.2c0,0.3-0.1,0.7-0.5,1.2c-0.2,0.5-0.5,0.9-0.8,1.4c-0.3,0.5-0.6,1-0.8,1.5
	c1.9,0.3,3.4,0.5,4.7,0.8c1,0.2,1.7,0.8,2.1,1.7c0.2,0.5,0.4,1,0.5,1.4c0.1,0.4,0.2,0.8,0.3,1.3
	C119.9,111.4,119.9,111.7,119.7,111.9z M161,104.5c-0.6,1.1-1.2,2.3-1.9,3.7c-0.7,1.4-1.4,2.9-2.2,4.4c-0.8,1.5-1.5,3.1-2.3,4.7
	c-0.8,1.6-1.5,3.1-2.2,4.6c-0.7,1.5-1.3,2.8-1.9,4c-0.6,1.2-1,2.3-1.3,3.1c-0.2,0.4-0.5,0.7-0.7,0.8c-0.3,0.2-0.7,0.1-1.3-0.1
	c-0.5-0.2-1.1-0.5-1.6-0.7s-1-0.6-1.4-0.9c-0.5-0.4-0.8-0.7-1-1.1c-0.1-0.4-0.1-0.9,0.2-1.5c0.2-0.7,0.5-1.6,1-2.7
	c0.4-1.1,0.9-2.4,1.4-3.7c0.5-1.3,1.1-2.8,1.7-4.2c0.6-1.5,1.2-2.9,1.9-4.3c-0.9,1.1-2,2.4-3,3.7c-1.1,1.3-2.1,2.7-3.1,4
	c-1,1.3-1.9,2.5-2.8,3.7c-0.9,1.2-1.6,2.1-2.1,2.9c-0.2,0.2-0.3,0.4-0.4,0.6s-0.2,0.2-0.4,0.3c-0.1,0.1-0.3,0.1-0.5,0
	c-0.2,0-0.4-0.1-0.8-0.2c-0.9-0.4-1.8-0.7-2.4-1.1c-0.3-0.1-0.5-0.3-0.6-0.4c-0.2-0.1-0.3-0.3-0.4-0.5c-0.1-0.2-0.2-0.5-0.3-0.7
	s-0.1-0.6-0.2-1.1c-0.2-1.8-0.3-3.9-0.4-6.3c-0.1-2.4-0.1-4.8,0-7.3c-0.6,1.6-1.2,3.2-1.8,4.8c-0.6,1.6-1.1,3.2-1.6,4.6
	c-0.5,1.5-1,2.9-1.4,4.2c-0.4,1.3-0.8,2.5-1,3.5c-0.2,0.4-0.4,0.7-0.6,0.8c-0.2,0.1-0.6,0-1.2-0.2c-0.5-0.2-1.1-0.5-1.6-0.7
	s-1-0.6-1.5-0.9c-0.6-0.4-0.9-0.8-1.1-1.2s-0.2-0.9,0-1.5c0.2-0.9,0.4-2.1,0.7-3.5c0.3-1.4,0.7-2.8,1.1-4.4s0.9-3.2,1.4-4.9
	c0.5-1.7,1-3.4,1.5-5c0.5-1.6,1-3.2,1.5-4.6c0.5-1.5,0.9-2.7,1.3-3.8c0.4-0.8,0.8-1.3,1.2-1.4c0.4-0.1,1.1-0.1,1.9,0.2
	c1.3,0.4,2.4,0.8,3.2,1.2c0.9,0.4,1.7,0.8,2.6,1.3c0.5,0.3,1,0.6,1.3,0.9c0.3,0.3,0.5,0.6,0.7,1c0.1,0.3,0.2,0.7,0.2,1.1
	c0,0.4,0,0.8,0.1,1.3c0,0.2-0.1,0.5-0.1,0.8c0,0.3,0,0.9-0.1,1.7c0,0.8,0,1.9-0.1,3.4c0,1.5-0.1,3.5-0.1,6.1
	c0.5-0.8,1.2-1.7,1.9-2.6c0.7-1,1.4-1.9,2.2-2.9c0.7-1,1.5-2,2.3-3s1.5-1.9,2.3-2.8c0.8-1,1.4-1.9,1.9-2.5c0.5-0.6,1.1-1.1,1.6-1.4
	c0.5-0.3,1-0.4,1.6-0.4c0.6,0,1.2,0.3,2,0.7c1,0.4,1.9,0.9,3,1.5s2.1,1.2,3,1.8c0.6,0.5,1,0.9,1.1,1.4
	C161.5,103.1,161.4,103.8,161,104.5z"/>
</svg>
