<?xml version="1.0" encoding="iso-8859-1"?>
<!-- Generator: Adobe Illustrator 18.0.0, SVG Export Plug-In . SVG Version: 6.00 Build 0)  -->
<!DOCTYPE svg PUBLIC "-//W3C//DTD SVG 1.1//EN" "http://www.w3.org/Graphics/SVG/1.1/DTD/svg11.dtd">
<svg xmlns="http://www.w3.org/2000/svg"  version="1.1" id="Capa_1" x="0px" y="0px" viewBox="0 0 191.736 191.736" style="enable-background:new 0 0 191.736 191.736;" xml:space="preserve" width="512px" height="512px">
<g>
	<path d="M184.736,0H7C3.134,0,0,3.134,0,7v177.736c0,3.866,3.134,7,7,7h177.736c3.866,0,7-3.134,7-7V7   C191.736,3.134,188.603,0,184.736,0z M177.736,177.736H14V14h163.736V177.736z" fill="#66D3D3"/>
	<path d="M95.868,161.496c36.188,0,65.628-29.44,65.628-65.628S132.056,30.24,95.868,30.24S30.24,59.681,30.24,95.868   S59.681,161.496,95.868,161.496z M95.868,44.24c28.468,0,51.628,23.16,51.628,51.628s-23.16,51.628-51.628,51.628   S44.24,124.336,44.24,95.868S67.4,44.24,95.868,44.24z" fill="#66D3D3"/>
</g>
</svg>
