<?xml version="1.0" encoding="iso-8859-1"?>
<!-- Generator: Adobe Illustrator 18.0.0, SVG Export Plug-In . SVG Version: 6.00 Build 0)  -->
<!DOCTYPE svg PUBLIC "-//W3C//DTD SVG 1.1//EN" "http://www.w3.org/Graphics/SVG/1.1/DTD/svg11.dtd">
<svg xmlns="http://www.w3.org/2000/svg"  version="1.1" id="Capa_1" x="0px" y="0px" viewBox="0 0 199.002 199.002" style="enable-background:new 0 0 199.002 199.002;" xml:space="preserve" width="512px" height="512px">
<g>
	<path d="M192.876,29.056c-3.828-0.475-7.337,2.234-7.82,6.07l-2.711,21.521c-1.084-0.132-2.161-0.223-3.221-0.223   c-4.167,0-8.361,0.975-12.823,2.981c-3.779,1.699-7.368,3.981-10.839,6.188c-3.191,2.03-6.205,3.946-9.066,5.233   c-2.619,1.178-4.936,1.75-7.083,1.75s-4.463-0.572-7.083-1.75c-2.861-1.286-5.875-3.203-9.072-5.236   c-3.47-2.206-7.058-4.487-10.833-6.184c-3.278-1.474-7.313-2.981-12.378-2.981c-4.281,0-8.993,1.059-13.268,2.981   c-3.776,1.697-7.364,3.979-10.84,6.188c-3.191,2.03-6.205,3.946-9.066,5.233c-2.619,1.178-4.936,1.75-7.082,1.75   s-4.463-0.572-7.083-1.75c-2.861-1.286-5.875-3.203-9.067-5.232c-3.471-2.207-7.059-4.489-10.838-6.188   c-4.462-2.006-8.657-2.981-12.824-2.981c-1.059,0-2.137,0.091-3.221,0.223l-2.711-21.521c-0.483-3.835-3.982-6.55-7.82-6.07   c-3.835,0.483-6.553,3.984-6.07,7.82l13.827,109.748c1.679,13.328,13.074,23.377,26.507,23.377h118.224   c13.433,0,24.828-10.05,26.507-23.377l13.827-109.748C199.429,33.04,196.711,29.539,192.876,29.056z M171.229,144.875   c-0.799,6.343-6.223,11.126-12.616,11.126H40.389c-6.394,0-11.817-4.784-12.616-11.127L18.405,70.52   c0.499-0.058,0.991-0.096,1.473-0.096c2.146,0,4.463,0.572,7.083,1.75c2.859,1.285,5.875,3.202,9.066,5.232   c3.47,2.207,7.057,4.488,10.839,6.188c8.925,4.013,16.725,4.012,25.646,0c3.782-1.7,7.37-3.982,10.843-6.191   c3.191-2.029,6.206-3.946,9.063-5.23c2.437-1.096,5.251-1.75,7.527-1.75c1.975,0,3.836,0.491,6.638,1.75   c2.856,1.284,5.871,3.2,9.066,5.232c3.47,2.207,7.057,4.488,10.839,6.188c4.461,2.006,8.656,2.981,12.823,2.981   s8.361-0.975,12.823-2.981c3.782-1.7,7.37-3.982,10.838-6.188c3.192-2.03,6.208-3.947,9.067-5.233   c2.619-1.178,4.936-1.75,7.083-1.75c0.482,0,0.974,0.039,1.473,0.096L171.229,144.875z" fill="#66D3D3"/>
</g>
</svg>
