<?xml version="1.0" standalone="no"?>
<!DOCTYPE svg PUBLIC "-//W3C//DTD SVG 20010904//EN"
 "http://www.w3.org/TR/2001/REC-SVG-20010904/DTD/svg10.dtd">
<svg version="1.0" xmlns="http://www.w3.org/2000/svg"
 width="700.000000pt" height="700.000000pt" viewBox="0 0 700.000000 700.000000"
 preserveAspectRatio="xMidYMid meet">
<metadata>
Created by potrace 1.11, written by Peter Selinger 2001-2013
</metadata>
<g transform="translate(0.000000,700.000000) scale(0.100000,-0.100000)"
fill="#000000" stroke="none">
<path d="M3298 6995 c-1 -1 -41 -5 -88 -9 -198 -13 -423 -53 -636 -111 -99
-27 -325 -104 -391 -132 -21 -9 -40 -17 -43 -18 -76 -22 -365 -176 -545 -290
-104 -66 -308 -219 -372 -279 -12 -12 -62 -57 -110 -101 -349 -317 -651 -752
-843 -1210 -85 -203 -174 -502 -210 -705 -6 -36 -13 -76 -16 -90 -2 -14 -7
-47 -10 -75 -3 -27 -7 -61 -10 -75 -25 -152 -25 -658 1 -811 2 -13 7 -50 10
-83 15 -149 83 -434 150 -633 231 -682 666 -1272 1255 -1704 271 -199 618
-379 934 -484 93 -31 233 -72 267 -78 13 -3 53 -12 89 -20 148 -36 309 -61
485 -75 178 -14 577 -6 715 14 144 21 295 48 345 61 33 8 67 16 75 18 228 47
735 253 910 371 19 13 40 24 46 24 7 0 14 3 16 8 2 4 28 23 58 42 241 150 556
418 728 620 26 30 63 72 83 95 50 55 180 232 247 335 48 74 212 363 212 374 0
3 16 40 36 83 73 157 185 473 209 590 2 10 12 59 23 108 23 103 27 123 46 260
26 181 29 228 31 455 3 347 -24 583 -100 880 -19 74 -37 145 -40 156 -3 12
-23 73 -44 136 -274 793 -832 1469 -1559 1890 -117 68 -364 188 -427 208 -22
7 -44 16 -50 20 -19 14 -249 89 -385 124 -133 35 -237 57 -335 72 -27 4 -52 8
-55 9 -3 1 -41 5 -85 10 -44 4 -89 10 -100 12 -26 4 -512 12 -517 8z m412
-639 c84 -6 249 -27 320 -40 14 -3 36 -7 50 -10 14 -2 45 -9 70 -15 25 -7 52
-13 60 -15 305 -75 634 -224 910 -413 581 -399 992 -994 1161 -1678 16 -66 32
-138 35 -159 2 -21 6 -42 8 -45 3 -3 7 -31 10 -61 3 -30 8 -65 10 -77 6 -28
18 -203 20 -271 l1 -54 -130 -34 c-218 -57 -284 -67 -455 -68 -176 0 -233 10
-475 86 -240 75 -328 90 -525 91 -164 1 -181 -1 -269 -27 -52 -15 -120 -38
-150 -51 -189 -78 -408 -119 -636 -119 -209 1 -326 23 -595 114 -233 79 -318
94 -525 93 -145 0 -226 -8 -330 -30 -38 -8 -79 -16 -89 -18 -51 -11 -302 -102
-322 -116 -6 -5 -51 -19 -101 -33 -139 -37 -313 -31 -465 16 l-38 11 0 429 0
428 -256 0 -256 0 6 28 c4 15 30 90 58 167 89 247 224 499 383 716 33 45 65
87 70 93 6 6 33 38 60 71 109 130 299 309 439 413 39 29 78 59 86 65 8 7 51
35 95 64 395 255 844 406 1335 449 35 3 65 6 66 7 5 5 277 -1 364 -7z"/>
</g>
</svg>
